<?xml version="1.0" encoding="UTF-8"?>
<svg width="746px" height="624px" viewBox="0 0 746 624" version="1.1" xmlns="http://www.w3.org/2000/svg" xmlns:xlink="http://www.w3.org/1999/xlink">
    <!-- Generator: Sketch 60 (88103) - https://sketch.com -->
    <title>编组</title>
    <desc>Created with Sketch.</desc>
    <g id="页面-1" stroke="none" stroke-width="1" fill="none" fill-rule="evenodd">
        <g id="编组" transform="translate(-78.000000, -14.000000)">
            <g id="云印章" transform="translate(699.000000, 439.000000)" fill="#5D5D5D" fill-rule="nonzero">
                <path d="M65.7907291,92.6250366 L65.7907292,92.6250366 C64.2109345,92.6250364 62.9302675,94.0801175 62.9302675,95.8750329 C62.9302673,97.6699623 64.2109468,99.1250292 65.7907292,99.1250292 C65.7907292,99.1250292 65.7907293,99.1250292 65.7907294,99.1250292 L30.0349276,99.1250292 C13.4185197,99.1250292 0,84.012554 0,64.999977 C0,45.9875396 13.515742,30.7889012 30.1321499,30.7889012 C31.5395009,30.7889012 32.9640103,30.9075263 34.3727871,31.1301518 C40.9947681,12.3954752 57.2664855,0 75.1143348,0 C86.7564275,0 97.3629983,5.17725658 105.604032,14.6055514 L105.60403,14.6055501 C111.831358,21.7016601 116.022597,30.7730694 117.626568,40.6266636 L117.609406,40.7712891 L117.609406,40.7712879 C117.377038,42.6881164 115.82102,44.0280014 114.133924,43.763996 C113.014255,43.5887805 112.068682,42.7316309 111.669652,41.5301655 C108.324333,21.7229888 93.3483515,6.50005166 75.112965,6.50005166 C60.0111846,6.50005166 45.9519319,16.8318021 40.0465688,32.5000782 C41.3194802,33.0135781 42.7482792,33.9430795 43.9468174,34.6450783 L43.9468183,34.6450788 C48.0769589,37.1023049 51.6553291,40.604241 54.4061054,44.8809467 L54.4061055,44.8809468 C55.3813962,46.4119965 55.0941271,48.5490785 53.7610706,49.6795746 L53.7610707,49.6795745 C52.4285108,50.7928826 50.5539274,50.468038 49.5740472,48.9540156 C49.5714216,48.9499588 49.568804,48.9458954 49.5661943,48.9418254 C45.0237747,41.8795802 37.6924028,37.37508 30.0349614,37.37508 C16.7295194,37.37508 5.72103089,49.7592017 5.72103089,65.0000558 C5.72103089,80.222993 16.7152249,92.6250316 30.0349614,92.6250316 L65.7907632,92.6250316 L65.7907291,92.6250366 Z M62.5112037,22.2007454 C57.566891,25.4393743 55.1097481,29.846372 55.0797211,29.8967432 L55.0797211,29.8967432 C54.8045255,30.3949041 54.3244649,30.6988769 53.8068097,30.7027437 C53.5350654,30.7027437 53.2518793,30.6166188 53.0116002,30.4459931 L53.0116001,30.4459931 C52.3093897,29.9445421 52.0979196,28.891259 52.5392682,28.0934196 C52.5417521,28.0889293 52.5442545,28.0844522 52.5467752,28.0799884 C52.6669148,27.8736131 55.438702,22.9027318 61.0280496,19.2351168 C66.1826132,15.8567417 74.7826069,12.9951216 86.5005354,18.5314925 C87.2642798,18.8906181 87.624698,19.9029925 87.3100468,20.777249 L87.3100468,20.777249 C86.9941395,21.6485519 86.1163734,22.0639125 85.3494997,21.7049852 C85.3484441,21.7044912 85.347389,21.7039957 85.3463344,21.7034989 C76.8507533,17.6734962 69.1646614,17.8457526 62.5112644,22.2007494 L62.5112037,22.2007454 Z" id="形状" fill-opacity="0.513166521"></path>
                <g id="中国移动" transform="translate(68.000000, 46.000000)" fill-opacity="0.598967439">
                    <path d="M40.960376,19.4509144 C39.501191,18.2794501 38.0591058,17.6908607 36.6284205,17.7137185 C35.1977352,17.7308619 33.8126494,18.3137369 32.587162,19.370912 C32.2394656,19.6737784 31.8974691,19.9766448 31.5554726,20.2795112 C28.5687033,22.7767303 19.334776,31.1998223 19.1239227,31.3941363 C18.4228299,32.0455847 17.5279391,32.4741692 16.5190494,32.4398825 C15.6298586,32.4055957 14.6608685,32.011298 13.6633788,31.0912699 C12.9736859,30.4569648 9.82161827,27.9997469 6.13377843,23.89105 C3.86520175,21.3652586 1.99562096,19.1080468 1.99562096,19.1080468 C1.99562096,19.1080468 1.57952524,19.9595014 1.34582764,20.5538053 C1.15202963,21.0452488 1.31732793,21.3595441 1.41422694,21.4909767 C2.63971434,23.2396016 8.26556766,29.9198055 16.0231657,36.5542715 C17.4424511,37.765737 18.9244358,38.3086108 20.3551211,38.2914674 C21.7858064,38.274324 23.1708922,37.6857346 24.3906797,36.6285595 C24.7383761,36.3314075 25.0803726,36.0285411 25.4223691,35.7199603 C28.4091384,33.2227412 34.0064586,28.1311683 36.6569313,25.6910827 C37.2212255,25.1824957 37.6430212,24.7996269 37.853919,24.5996208 C38.5550118,23.9481723 39.4499026,23.5253022 40.4587923,23.559589 C41.3479831,23.5995902 42.2827735,24.0338892 43.3201629,24.9082016 C44.9788458,26.3139588 47.6635182,28.7826056 50.8497632,32.1084215 C53.1867392,34.5542104 54.9765208,36.8399945 54.9936206,36.8685668 C54.9936206,36.8685668 55.4268162,35.9885399 55.6605138,35.3885216 C55.8486118,34.897078 55.6890135,34.6170695 55.5864145,34.4856369 C50.5533663,27.8797432 43.0351324,21.1194922 40.9603871,19.4509144 L40.960376,19.4509144 Z M37.6031105,9.76490441 C34.0064474,7.81627348 29.8511902,7.2105407 25.7073216,10.2106323 C23.1138483,12.0906897 12.4207804,21.9424079 10.3231574,24.2967767 C10.3231574,24.2967767 11.827942,25.9425412 14.0851188,27.7997408 C14.6665128,28.2968988 15.3790055,28.1940385 15.9888992,27.5825913 C20.1042569,23.4738944 28.5116817,16.1307907 29.6402589,15.2336651 C32.8094263,12.5650122 36.4972773,12.3250049 39.8773314,14.8393674 C48.0795694,20.9367076 55.3355837,30.5312528 56.5895708,32.3199234 C56.5895708,32.3199234 56.7719689,31.4398966 56.8859678,30.6455866 C56.8916677,30.5998709 57.0455661,29.8855634 56.6351704,29.2912595 C48.9345718,18.2623514 40.7437448,11.4564516 37.6030437,9.76493789 L37.6031105,9.76490441 Z M6.55551844,20.3480959 C6.94311445,20.6795345 7.35351023,20.5881032 7.69550672,20.2338066 C12.9166531,15.2279395 18.5823948,10.1192121 21.8598611,7.59915748 C27.4002042,3.34759909 33.8981486,2.93615796 40.2307612,7.95916847 C42.5962369,9.83351141 44.6881154,11.6849965 47.7432729,14.8108286 C51.6534327,19.0395291 54.2070287,22.5710544 57,26.5483521 C57,26.5483521 56.9886001,25.4797481 56.6751033,24.0682764 C56.6238039,23.8282691 56.515505,23.4396858 56.3445067,23.0911037 C55.7859125,21.976784 53.3178378,17.7766557 49.7382524,13.6279799 C42.6418253,5.4048494 38.1559603,2.901927 35.2832232,1.40472727 C31.4756623,-0.583904882 24.0543386,-1.16106536 17.0490883,4.45624901 C11.7709426,8.69066402 4.97089019,14.9194033 3.24381907,16.799483 C3.24381907,16.799483 4.53200583,18.3823885 6.55548504,20.3481628 L6.55551844,20.3480959 Z M19.3974753,46.2346005 C22.9998383,48.1832315 27.1493957,48.7889643 31.2932642,45.7888726 C33.8924375,43.9088152 44.5798054,34.057097 46.6774284,31.7027283 C46.6774284,31.7027283 45.1726438,30.0569637 42.915467,28.1997642 C42.334073,27.7026061 41.6215803,27.8054664 41.0116866,28.4169136 C36.8906289,32.5256105 28.4889042,39.8687142 27.3603269,40.7715878 C24.1911595,43.4345262 20.5033085,43.6745335 17.1232544,41.160171 C8.92101639,35.0628309 1.6650021,25.4682857 0.416748323,23.679615 C0.416748323,23.679615 0.228650256,24.5596419 0.120351369,25.3539518 C0.114651427,25.3996675 -0.0392469911,26.113975 0.371148791,26.7139934 C8.06606971,37.7372094 16.2511633,44.5431092 19.3975421,46.2345671 L19.3974753,46.2346005 Z M50.4450674,35.6514091 C50.0574714,35.3199704 49.6413756,35.4056873 49.2993791,35.7656983 C44.0782328,40.7715654 38.4181687,45.8802928 35.1350247,48.4003475 C29.5946817,52.6519059 23.0967373,53.063347 16.7641247,48.0403365 C14.4100488,46.171708 12.3124704,44.3145084 9.25161299,41.1944243 C5.34145318,36.9600093 2.7935905,33.4284506 0.000303633083,29.4512086 C0.000303633083,29.4512086 -0.0221805649,30.4798115 0.31981592,31.9312843 C0.376815334,32.1712917 0.47941428,32.559875 0.650412523,32.9027426 C1.21470672,34.0227768 3.67708142,38.222905 7.25666689,42.3716143 C14.3587716,50.600437 18.838959,53.1033594 21.7116961,54.594867 C25.5192569,56.5834991 32.9405807,57.1606596 39.9400976,51.5490597 C45.2182434,47.3203591 52.0182957,41.0859054 53.7453858,39.2115178 C53.7510668,39.2058033 52.46858,37.6114689 50.4451008,35.6514091 L50.4450674,35.6514091 Z" id="形状"></path>
                </g>
            </g>
            <g id="纸张" transform="translate(295.497049, 306.951398) rotate(-40.000000) translate(-295.497049, -306.951398) translate(126.497049, 48.951398)" fill="#827D7D" fill-rule="nonzero">
                <path d="M114.872598,0.922150448 C106.469847,0.922150448 98.7609154,7.81368229 93.7820257,13.5886483 L10.4429325,110.131114 C3.61559532,118.035673 0.149626238,126.009642 0.149626238,133.82543 L0.149626238,482.696374 C0.149626238,501.016718 13.0130724,515.92215 28.8308899,515.92215 L301.29796,515.92215 C306.915517,515.92215 315.587433,515.698934 321.708381,511.99037 C331.136528,506.278037 337.149626,494.808432 337.149626,482.696374 L337.149626,34.1486742 C337.149626,15.8283301 324.285188,0.922150448 308.46737,0.922150448 L114.872598,0.922150448 Z M107.540712,6.86948558 L107.540712,99.9491812 C107.540712,112.105392 99.0470134,121.62492 88.2132424,121.62492 L5.21277705,121.62492 L107.540712,6.86948558 L107.540712,6.86948558 Z M310.450562,508.835844 L26.1879652,509.392868 C17.71793,509.392868 7.21680238,499.761364 7.21680238,490.073108 L7.21680238,127.272742 L82.7693421,127.272742 C91.5933113,127.272742 102.025546,125.26023 107.554976,118.344301 C112.469946,112.196908 112.990463,101.685842 112.990463,92.7203548 L112.990463,6.34386776 L316.983417,6.34386776 C325.45455,6.34386776 332.0945,13.9232611 332.0945,23.6164166 L329.759807,491.380069 C327.873001,502.260216 319.813742,508.835844 310.450562,508.835844 Z M265.446988,108.906241 L165.064226,108.906241 C161.100388,108.906241 157.893774,110.785887 157.893774,113.104451 C157.893774,115.423027 161.100373,117.30298 165.064226,117.30298 L265.446492,117.30298 C269.41033,117.30298 272.616944,115.423038 272.616944,113.104451 C272.616944,110.785875 269.410345,108.906241 265.447037,108.906241 L265.446988,108.906241 Z M265.446988,183.664382 L71.8522646,183.664382 C67.8879205,183.664382 64.6818123,185.544028 64.6818123,187.86053 C64.6818123,190.181188 67.8879007,192.061122 71.8522646,192.061122 L265.446988,192.061122 C269.410826,192.061122 272.61744,190.18118 272.61744,187.86053 C272.61744,185.544034 269.410335,183.664382 265.446988,183.664382 Z M265.446988,266.728537 L71.8522646,266.728537 C67.8879205,266.728537 64.6818123,268.608411 64.6818123,270.926907 C64.6818123,273.243315 67.8879007,275.125276 71.8522646,275.125276 L265.446988,275.125276 C269.410826,275.125276 272.61744,273.243324 272.61744,270.926907 C272.61744,268.608416 269.410335,266.728537 265.446988,266.728537 L265.446988,266.728537 Z M265.446988,341.486679 L71.8522646,341.486679 C67.8879205,341.486679 64.6818123,343.367082 64.6818123,345.686239 C64.6818123,348.003304 67.8879007,349.883418 71.8522646,349.883418 L265.446988,349.883418 C269.410826,349.883418 272.61744,348.00331 272.61744,345.686239 C272.61744,343.367094 269.410335,341.486679 265.446988,341.486679 Z M262.933171,424.551408 L70.8997754,424.551408 C66.9359371,424.551408 63.7298686,426.430521 63.7298686,428.748747 C63.7298686,431.066964 66.935957,432.948147 70.8997754,432.948147 L262.933667,432.948147 C266.896999,432.948147 270.103573,431.066955 270.103573,428.748747 C270.103573,426.430529 266.896468,424.551408 262.933121,424.551408 L262.933171,424.551408 Z" id="形状"></path>
            </g>
            <g id="印章" transform="translate(464.754058, 362.662812) rotate(-42.000000) translate(-464.754058, -362.662812) translate(448.754058, 346.162812)" fill="#7F4E46">
                <g id="签章徽标" transform="translate(0.774689, 0.771687)">
                    <path d="M15.4956889,0.00876089908 C24.0392868,0.00876089908 30.9919833,7.02875518 30.9919833,15.6519708 C30.9919833,24.2751864 24.0399225,31.2889167 15.4956889,31.2889167 C6.9520911,31.2889167 0,24.2720697 0,15.6488235 C0,7.02560795 6.95206082,0.00811923167 15.4956889,0.00811923167 L15.4956889,0.00876089908 Z M15.4956889,30.2513711 C23.4719922,30.2513711 29.9602937,23.7026051 29.9602937,15.6519708 C29.9602937,7.59818917 23.4757158,1.04566488 15.4956889,1.04566488 C7.51626754,1.04566488 1.02736057,7.59757806 1.02736057,15.6488235 C1.02736057,23.7026051 7.5193857,30.2513711 15.4956889,30.2513711 Z M15.4956889,2.53314161 C22.6585439,2.53314161 28.4896689,8.41857624 28.4896689,15.6488235 C28.4896689,22.8784292 22.6622676,28.7632527 15.4956889,28.7632527 C8.33283392,28.7632527 2.50170897,22.8815458 2.50170897,15.6488235 C2.50170897,8.41857624 8.32971575,2.53314161 15.4956889,2.53314161 Z M25.1466298,21.3064968 L25.8800895,21.2545572 L25.5688479,21.9285219 L25.8112682,22.5987312 L25.8112683,22.598731 C27.1755273,20.5437972 27.9030775,18.1255758 27.9012947,15.6519785 C27.9012947,8.74714825 22.3373904,3.13078615 15.4957066,3.13078615 C8.65462836,3.13078615 3.09012188,8.74714825 3.09012188,15.6519785 C3.09012188,22.5568088 8.65462836,28.1731708 15.4963424,28.1731708 C19.7904528,28.1731708 23.579299,25.9622966 25.8081835,22.605606 L25.088362,22.5461571 L24.5068026,23.0217487 L24.3685424,22.3089876 L23.7628005,21.9247602 L24.40636,21.5442881 L24.6140603,20.831527 L25.1472609,21.3071187 L25.1466298,21.3064968 Z M20.6393824,9.38834121 L20.6434784,9.40062921 L20.6434784,9.40062921 C20.6401795,9.39853296 20.6373826,9.39573609 20.6352864,9.39243721 L20.6393824,9.38834121 L20.6393824,9.38834121 Z M10.1215421,7.4993235 L9.94546185,6.79845158 L9.30500231,6.42110836 L9.94546185,6.04376514 L10.1215421,5.34164044 L10.6925633,5.80972154 L11.4440054,5.75340147 L11.1563251,6.42110836 L11.4440054,7.08818886 L10.6925633,7.03186879 L10.1221627,7.49994989 L10.1215421,7.4993235 Z M14.7002534,5.85853104 L14.8143336,5.13888576 L14.3741331,4.53813839 L15.1119339,4.44740051 L15.5477932,3.87481318 L15.8900348,4.53188061 L16.5999356,4.77906312 L16.0741762,5.27843314 L16.0772762,6.0049626 L15.4095343,5.65577941 L14.6996334,5.85853165 L14.7002534,5.85853104 Z M20.5406723,6.70333202 L19.8041127,6.67579777 L20.1258925,6.02936979 L19.8871922,5.3209873 L20.6169342,5.46053591 L21.2053143,5.04814849 L21.3336545,5.78156212 L21.9350552,6.23587792 L21.2852956,6.55001996 L21.0707754,7.24213159 L20.5412954,6.70396208 L20.5406723,6.70333202 Z M16.4827555,25.663168 L16.3754954,26.379058 L16.8113547,26.9798053 L16.0816126,27.0705432 L15.6488533,27.6431306 L15.3097117,26.9866895 L14.6035315,26.7388812 L15.1230909,26.2426401 L15.1193709,25.516737 L15.7802923,25.8652969 L16.4827519,25.6631704 L16.4827555,25.663168 Z M15.4969544,23.2670627 C19.1127877,23.2670627 22.2270501,20.6688291 22.905963,17.0887527 L23.410643,17.1863742 C22.6908215,21.0104981 19.3620504,23.7877263 15.4969453,23.7877263 C13.6381843,23.7877263 11.8252877,23.1306589 10.3887509,21.9429325 L10.7142512,21.5411815 L10.7142509,21.5411812 C12.0629644,22.6565458 13.7527085,23.2661665 15.4963092,23.2664537 L15.4963092,23.2670795 L15.4969544,23.2670627 Z M8.42585945,9.68265799 L7.75067806,10.0180759 L7.49151776,10.7133164 L6.98621717,10.200178 L6.24903692,10.2033069 L6.61235795,9.55062117 L6.41147771,8.85538064 L7.13811977,8.96676921 L7.75439988,8.53372926 L7.84429999,9.25712983 L8.42585945,9.68265921 L8.42585945,9.68265799 Z M21.0180789,24.3840834 L21.1947792,25.0862081 L21.8315211,25.462928 L21.1947792,25.8402712 L21.0180789,26.5386407 L20.4507783,26.0705596 L19.7067774,26.1268796 L19.9901178,25.4591727 L19.7067774,24.7958475 L20.4507783,24.8521676 L21.0180789,24.3840834 L21.0180789,24.3840834 Z M15.4951077,8.03436718 C11.8792744,8.03436718 8.76128832,10.6326008 8.08609906,14.2126771 L7.58079847,14.1150557 C8.30434052,10.2902901 11.6331147,7.51370358 15.4951016,7.51370358 C17.353245,7.51370358 19.1661235,8.17077101 20.6026603,9.35787406 L20.2771599,9.75962508 L20.2771598,9.75962494 C18.9284463,8.64426031 17.2387021,8.0346396 15.4951015,8.03435237 L15.4951077,8.03436718 Z M11.0001024,24.8408895 L11.7341827,24.8659207 L11.4117823,25.5117253 L11.6473826,26.2169789 L10.9238405,26.081185 L10.3391811,26.492946 L10.2151809,25.7632876 L9.61625963,25.3127271 L10.2598192,24.9985851 L10.4743394,24.3070998 L11.0000988,24.8415141 L11.0001024,24.8408895 Z" id="形状" fill-rule="nonzero"></path>
                    <text id="电子签章" transform="translate(15.030242, 15.421229) rotate(-18.000000) translate(-15.030242, -15.421229) " font-family="PingFangSC-Regular, PingFang SC" font-size="4" font-weight="normal" letter-spacing="0.1719886">
                        <tspan x="6.68626499" y="16.9212286">电子签章</tspan>
                    </text>
                </g>
            </g>
            <g id="签字" transform="translate(430.500000, 375.000000) rotate(-40.000000) translate(-430.500000, -375.000000) translate(399.000000, 349.000000)" fill-rule="nonzero">
                <path d="M60.9242357,0.878775195 L60.9242356,0.878775139 C60.2303069,0.597967576 59.4931515,0.43894113 58.7451727,0.408688483 C56.1777764,-0.0158055587 52.6937958,0.636656851 49.9377221,2.05477926 C50.7521211,0.147704225 47.654892,0.98254239 46.4741736,1.27811573 C42.6820518,2.2214319 39.2703569,3.92569378 36.234463,6.2525521 C36.5017365,4.63318974 34.3682663,5.57650944 32.8385177,6.79181692 C29.8230453,9.18784282 27.4270124,12.0476626 25.9632885,15.5080894 C24.6583672,18.5895936 24.6693708,21.7119832 25.8390849,24.6173956 C29.7947412,20.4353476 33.5538454,16.4341022 38.3946574,12.4108568 C43.8108594,7.90650708 50.2898768,4.43982987 54.0458734,4.12695669 C39.8788275,10.9660254 30.5132549,22.2716589 21.3992167,33.8210228 L37.1840571,33.8210228 L37.1840571,33.2393117 L23.0626003,33.2393117 L23.0626003,33.2393117 C23.3399037,33.1280966 23.5894526,32.9574377 23.7936712,32.7393538 C24.8454689,31.6388171 25.7054605,30.3684814 26.8185757,29.3213979 C28.220975,28.0023267 28.3027281,28.1108083 29.5086035,28.0809335 C31.854319,28.0227624 34.2299163,27.859254 36.5331714,27.4536263 C41.4336977,26.5952061 45.6188885,24.4507323 48.8183169,20.7513601 C49.618566,19.8269082 50.3905117,18.2610026 48.3309375,18.3207451 C49.0557191,17.9905841 49.5761162,17.7924874 50.055635,17.534646 C53.8131854,15.5300965 57.297166,13.2331341 59.5014034,9.59663672 C60.0988393,8.61873146 60.7795998,6.7415277 58.7656147,7.10785063 C59.8740121,6.07020285 60.9714059,5.21492552 61.8424011,4.19299908 C63.1457509,2.675829 62.8061564,1.63032055 60.9242383,0.878810467 L60.9242357,0.878775195 Z" id="路径" fill="#302C2C"></path>
                <path d="M3.04072616,45.5945222 L3.04072616,44.4029888 L3.04072616,43.8163873 L3.04072616,43.5047552 L3.04072614,43.5047552 C3.02596524,43.4445421 3.02596529,43.3816552 3.04072617,43.3214421 L3.04072617,43.1747917 L3.04072614,43.1747919 C3.24343017,42.0277441 3.6270569,40.9201717 4.17726809,39.8934881 L4.17726866,39.893487 C5.27327384,37.7338364 7.0429009,35.9899477 9.21836827,34.9256921 L9.36501864,34.9256921 L9.63998802,34.8157045 L9.63998804,34.8157045 C9.83710999,34.7497611 10.0394832,34.700701 10.24492,34.6690541 L10.6298775,34.6690541 C10.7398651,34.6690541 10.5198898,34.6690541 10.6298775,34.6690541 L10.9048469,34.6690541 L10.7948592,34.6690541 L10.9415096,34.7790418 C11.0514972,34.7790418 10.8315219,34.6690541 10.9415096,34.7790418 C11.0514972,34.8890294 10.9415096,34.6323914 10.9415096,34.7790418 C10.9415096,34.9256921 10.9415096,34.6690541 10.9415096,34.7790418 L10.9415096,34.7790419 C10.9452389,34.8400894 10.9452389,34.9013075 10.9415095,34.962355 C10.9415095,34.962355 10.9415095,35.2006621 10.9415095,34.962355 L10.9415095,35.3839747 L10.9415096,35.3839748 C10.9571206,35.4502829 10.9571206,35.5193106 10.9415095,35.5856188 L10.9415095,35.8422572 C10.9415095,35.6589442 10.9415095,35.8422572 10.9415095,35.8422572 L10.8315219,36.3738629 L10.8315221,36.3738615 C10.7651083,36.7560376 10.6607138,37.1306323 10.5198909,37.4920687 C10.2815842,38.2253226 9.98828521,38.9585723 9.78663693,39.6918263 C9.47500485,40.7367115 8.94339571,42.6614989 10.4832256,42.9731301 L10.4832257,42.9731301 C11.3830697,43.0482937 12.275218,42.75752 12.9579493,42.1665542 C13.379569,41.8549221 13.7645252,41.5066265 14.186148,41.1949952 C14.6077677,40.8833632 14.5344427,40.8833632 14.7544189,40.7367115 L15.2860246,40.351754 L15.2860247,40.3517539 C15.4429438,40.2355917 15.6083934,40.1314198 15.7809695,40.0401227 L16.0192766,39.8934723 L16.4042341,39.8934723 C16.5508844,39.8934723 16.2575837,39.8934723 16.4042341,39.8934723 L16.6242098,39.8934723 C16.6242098,39.8934723 16.4775595,39.8934723 16.6242098,39.8934723 C16.7708602,39.8934723 16.4775595,39.8934723 16.6242098,39.8934723 C16.7708602,39.8934723 16.4775595,39.7834847 16.6242098,39.8934723 C16.7708602,40.00346 16.6242098,39.7834847 16.6242098,39.8934723 L16.6242098,40.0767854 C16.6242098,40.113448 16.6242098,39.9667977 16.6242098,40.0767854 L16.6242098,41.0300139 L16.5142222,41.5249586 C16.5142222,41.8732534 16.3309091,42.2215473 16.2392528,42.5698438 L16.2392526,42.5698443 C16.0285319,43.2379061 15.8872453,43.9259096 15.8176333,44.6229452 L15.8176332,44.6229456 C15.7252301,45.2450694 15.9866914,45.8669225 16.4958914,46.2361018 L16.4958916,46.2361018 C17.2271475,46.542655 18.064532,46.4526882 18.7139797,45.9977947 L18.71398,45.9977945 C19.2699619,45.5896996 19.7801003,45.1225845 20.2354794,44.6046171 L20.2354794,44.6046171 C20.288728,44.5466505 20.3505507,44.4971926 20.4187925,44.4579668 C20.4187925,44.4579668 20.6570996,44.2746537 20.4187925,44.4579668 L20.4187923,44.4579669 C20.5392574,44.3664941 20.6681583,44.2866984 20.8037497,44.2196598 C20.9504001,44.2196598 20.6570994,44.2196598 20.8037497,44.2196598 L20.9137374,44.2196598 L20.9137374,44.2196598 C20.9921494,44.2016258 21.073632,44.2016258 21.1520445,44.2196598 L21.4453452,44.2196598 C21.4453452,44.2196598 21.6836523,44.2196598 21.4453452,44.2196598 L21.4453454,44.2196598 C21.9378538,44.2909214 22.4078594,44.472658 22.8201923,44.7512655 L22.8201922,44.7512655 C23.1194897,44.899727 23.4824703,44.7774501 23.6309318,44.4781528 C23.7660606,44.2057345 23.6779565,43.8753435 23.4251263,43.7063816 L23.4251264,43.7063816 C22.553341,43.121877 21.4814457,42.9167612 20.4554538,43.1381107 L20.4554539,43.1381106 C19.7837699,43.4253532 19.1922915,43.872108 18.7323105,44.4396313 L18.3840157,44.7879261 L18.2007026,44.9712391 C18.0540522,45.0812268 18.2007026,44.9712391 18.2007026,44.9712391 L18.2007026,44.9712392 C18.0677623,45.0634266 17.9266287,45.1431977 17.7790833,45.2095458 C17.6690956,45.2095458 17.9257336,45.2095458 17.7790833,45.2095458 L17.3574622,45.2095458 L17.0274988,45.2095458 C16.9908362,45.2095458 17.1741492,45.2095458 17.0274988,45.2095458 C16.8808484,45.2095458 17.1741492,45.3195335 17.0274988,45.2095458 C16.8808484,45.0995582 17.1374865,45.3561962 17.0274988,45.2095458 C16.9175111,45.0628955 17.0274988,45.3561962 17.0274988,45.2095458 L17.0274988,44.8245888 L17.0274988,44.8245887 C17.0118877,44.7582806 17.0118877,44.6892529 17.0274988,44.6229443 C17.0274988,44.6229443 17.0274988,44.4396312 17.0274988,44.6229443 L17.0274988,44.6229443 C17.009093,44.5757933 17.009093,44.5234449 17.0274988,44.4762939 L17.0274987,44.4762946 C17.0841303,44.1488886 17.1575519,43.8246083 17.2474727,43.5047399 C17.4307858,42.8081512 17.6324302,42.1482235 17.7790784,41.4149738 L17.7790785,41.4149736 C17.9520859,40.8092167 17.9132868,40.1625663 17.6690904,39.581843 L17.6690904,39.581843 C17.2338379,38.9599426 16.4171944,38.7365221 15.7259725,39.0502373 L15.725973,39.050237 C14.8253255,39.4378586 14.0094554,39.998378 13.3245714,40.7000542 L12.7563004,41.1583379 L12.3896743,41.341651 L11.8580686,41.7266085 L11.6197619,41.8732588 L10.7948555,41.8732588 C10.6482051,41.8732588 10.9415058,41.8732588 10.7948555,41.8732588 L10.6848678,41.8732588 C10.5015547,41.8732588 10.6848678,41.8732588 10.6848678,41.8732588 C10.6848678,41.8732588 10.8315182,41.9832465 10.6848678,41.8732588 C10.5382174,41.7632712 10.6848678,42.0199092 10.6848678,41.8732588 L10.6848678,41.7266085 C10.6848678,41.7266085 10.6848678,41.8732588 10.6848678,41.7266085 L10.6848678,41.5432954 L10.6848678,41.5432952 C10.6877272,41.4625092 10.728482,41.3877924 10.7948559,41.3416508 C10.7948559,41.3416508 10.7948559,41.1583378 10.7948559,41.3416508 L10.794856,41.3416506 C10.8579273,41.0140015 10.9374638,40.6897366 11.0331631,40.3700917 L11.033163,40.3700919 C11.6215734,38.9110433 12.0517642,37.3930802 12.3163531,35.8422546 L12.3163532,35.8422539 C12.414182,35.182975 12.2201134,34.5137746 11.7847433,34.0091233 L11.7847434,34.0091234 C11.1498193,33.5301717 10.3178144,33.3995293 9.5666553,33.6608286 L9.56665538,33.6608286 C8.56226398,33.9451708 7.6265625,34.4317361 6.81696156,35.0906713 L6.81696064,35.090672 C5.7637309,35.8881428 4.83674779,36.8398459 4.06726681,37.913692 L4.06726731,37.9136914 C2.62170234,39.8654761 1.80917952,42.2134933 1.73919194,44.6412734 L1.73919194,45.7594806 C1.81251734,46.382743 3.0407126,46.382743 3.0407126,45.5944989 L3.04072616,45.5945222 Z" id="路径" fill="#282C2F" transform="translate(12.716599, 39.972117) rotate(-38.000000) translate(-12.716599, -39.972117) "></path>
            </g>
            <g id="盖章" transform="translate(344.000000, 596.500000) rotate(-43.000000) translate(-344.000000, -596.500000) translate(311.000000, 551.000000)">
                <polygon id="路径" fill="#87C38F" fill-rule="nonzero" points="45.323665 89.3377655 33.323665 77.4878995 21.323665 89.3377655 21.323665 55.3377655 45.2775111 55.3377655 45.323665 89.3377655"></polygon>
                <path d="M22.0917654,90.4264659 C21.2890209,90.4264659 20.6646642,89.7421256 20.6646642,88.9665399 L20.6646642,54.9320146 C20.6646642,54.1108062 21.3336178,53.4720886 22.0917654,53.4720886 L45.237563,53.4720886 C46.0403074,53.4720886 46.6646642,54.1564289 46.6646642,54.9320146 L46.6646642,88.9665399 C46.6646642,89.7877483 46.0403074,90.4720886 45.237563,90.4720886 C44.8361907,90.4720886 44.4794154,90.3352205 44.211834,90.0158617 L33.6423657,79.2032847 L23.0728974,90.0158617 C22.8499129,90.2895979 22.4485407,90.4264659 22.0917654,90.4264659 L22.0917654,90.4264659 Z M33.6423657,75.644715 C34.0437379,75.644715 34.4005132,75.7815831 34.6680947,76.0553192 L43.7658648,85.3623476 L43.7658648,56.3919406 L23.5188666,56.3919406 L23.5188666,85.3623476 L32.6166367,76.0553192 C32.8842182,75.7815831 33.2855904,75.644715 33.6423657,75.644715 L33.6423657,75.644715 Z" id="形状" fill="#23292F" fill-rule="nonzero" opacity="0.8"></path>
                <path d="M40.1199268,4.38497336 C40.3003931,4.29450213 40.4808593,4.15879529 40.6162089,4.02308844 C41.9514561,2.89792337 43.9436253,3.07108212 45.0658291,4.40985489 C45.0714965,4.41661598 45.0771357,4.42340083 45.0827464,4.43020924 C45.4436789,4.88256539 45.7143782,5.38015715 45.8046113,5.96822015 C46.1204272,7.68717352 47.7446233,8.86329951 49.4590524,8.59188582 C49.6395186,8.54665021 49.8651014,8.50141459 50.0455677,8.45617898 C51.7148803,7.86811598 53.5195425,8.68235705 54.1511743,10.3560748 C54.3316405,10.8989022 54.3767571,11.4869652 54.286524,12.0297926 C53.9707081,13.7487459 55.098622,15.4224637 56.8581677,15.739113 C57.0837505,15.7843486 57.2642167,15.7843486 57.4897995,15.7843486 C59.2493452,15.7843486 60.693075,17.1866527 60.693075,18.9508417 C60.693075,19.5389047 60.5577253,20.0817321 60.2419094,20.5793238 C59.3395783,22.1173347 59.880977,24.0624662 61.3698234,24.9671785 L61.911222,25.2385922 C63.5805346,25.8266552 64.4377492,27.6813154 63.8061174,29.3097975 C63.6256512,29.8526249 63.2647187,30.3049811 62.8586697,30.666866 C61.5140683,31.780793 61.3247068,33.7766996 62.4357038,35.1248358 C62.4413145,35.1316442 62.4469537,35.138429 62.4526211,35.1451902 C62.5879708,35.280897 62.7233204,35.4618395 62.8586701,35.5523107 C64.2032669,36.6662378 64.3926331,38.6621444 63.2816361,40.0102806 C63.2760253,40.017089 63.2703862,40.0238738 63.2647188,40.030635 C62.9037864,40.4829911 62.4526208,40.7996404 61.9112221,40.9805829 C60.2419095,41.5686459 59.3846949,43.3780705 59.9712102,45.0517883 C60.0163267,45.2327307 60.1065598,45.4136732 60.2419095,45.5946156 C61.1442407,47.1326265 60.602842,49.077758 59.068879,49.9372347 C58.5725969,50.2086484 58.0311982,50.3895908 57.444683,50.3895908 C55.6851373,50.3443552 54.2414075,51.7466593 54.1962909,53.5108483 C54.1962909,53.7370264 54.1962909,53.9179688 54.2414075,54.1441469 C54.5572234,55.8631003 53.3841929,57.536818 51.6697638,57.8534673 C51.1283651,57.9439386 50.5418499,57.8987029 50.0004512,57.7177605 C48.3311386,57.0844619 46.5264763,57.9439386 45.8948445,59.6176563 C45.8046114,59.7985988 45.7594949,59.9795412 45.7594949,60.2057193 C45.4887955,61.9246727 43.8194829,63.1007987 42.1050538,62.829385 C41.5636551,62.7389138 41.0222564,62.5127357 40.5710909,62.1056151 C39.2175942,60.9747248 37.2324657,61.1104316 36.1045518,62.4675001 C35.9692021,62.6032069 35.878969,62.7841494 35.7436193,62.9650918 C34.8864047,64.5031027 32.9463928,65.0459301 31.4124299,64.1412178 C30.9161478,63.8698041 30.5100987,63.4626836 30.2393994,62.9650918 C29.3821848,61.4270809 27.4421729,60.8842535 25.90821,61.7437302 C25.7277437,61.8342015 25.5472775,61.9699083 25.4119279,62.1056151 C24.0766804,63.2307804 22.0845113,63.0576216 20.9623074,61.7188489 C20.9566401,61.7120878 20.9510009,61.7053029 20.9453901,61.6984945 C20.5844577,61.2461384 20.3137584,60.7485466 20.2235252,60.1604836 C19.9077093,58.4415302 18.2835133,57.2654042 16.5690842,57.5368179 C16.3886179,57.5820536 16.1630352,57.6272892 15.9825689,57.6725248 C14.3132563,58.2605878 12.5085941,57.4463467 11.8769623,55.772629 C11.6964961,55.2298016 11.6513795,54.6417386 11.7416126,54.0989112 C12.0574285,52.3799578 10.9295146,50.7062401 9.16996889,50.3895908 C8.9443861,50.3443551 8.76391988,50.3443551 8.53833709,50.3443551 C6.77879139,50.3443551 5.33506158,48.9420511 5.33506158,47.1778621 C5.33506158,46.5897991 5.47041125,46.0469717 5.78622714,45.5493799 C6.68855828,44.011369 6.1471596,42.0662376 4.65831323,41.1615253 L4.11691455,40.8901116 C2.44760196,40.3020486 1.59038738,38.4473884 2.22201918,36.8189062 C2.4024854,36.2760788 2.76341785,35.7784871 3.21458342,35.4166022 C4.55918013,34.3026752 4.7485463,32.3067685 3.63755021,30.9586323 C3.6319395,30.951824 3.62630042,30.9450392 3.62063309,30.9382782 C3.48528342,30.8025713 3.34993375,30.6216289 3.21458408,30.5311576 C1.86108738,29.4002672 1.72573771,27.3646646 2.85365163,26.0528317 C3.21458408,25.6457112 3.66574965,25.3290619 4.16203177,25.1481194 C5.83134436,24.5600564 6.68855894,22.7506318 6.1020437,21.0769141 C6.05692714,20.8959716 5.96669403,20.7150291 5.83134436,20.5340867 C4.92901323,19.0413114 5.42529535,17.0509443 6.91414172,16.146232 C7.41042384,15.8295827 7.99693908,15.6938759 8.58345431,15.6938759 C10.343,15.7391115 11.7867298,14.3368074 11.8318464,12.5726184 C11.8318464,12.3464404 11.8318464,12.1654979 11.7867298,11.9393198 C11.4709139,10.2203664 12.6439444,8.54664869 14.3583736,8.22999938 C14.8997722,8.13952815 15.4862875,8.18476376 16.0276861,8.36570623 C17.6969987,8.99900484 19.501661,8.13952815 20.1332928,6.46581039 C20.2235259,6.28486793 20.2686425,6.10392547 20.2686425,5.8777474 C20.5393418,4.15879402 22.2086544,2.98266803 23.9230835,3.25408172 C24.4644822,3.34455295 25.0058809,3.57073103 25.4570465,3.97785156 C26.8105432,5.10874194 28.7956717,4.97303509 29.9235856,3.61596664 C30.0589352,3.4802598 30.1491683,3.29931733 30.284518,3.11837487 C31.1868492,1.62559958 33.1268611,1.12800781 34.660824,2.03272011 C35.1571061,2.3041338 35.5180386,2.71125434 35.7887379,3.16361049 C36.645952,4.70162267 38.5859639,5.24445005 40.1199268,4.38497336 Z" id="路径" fill="#FFFFFF" fill-rule="nonzero"></path>
                <path d="M33.0613605,66.7869053 C31.3878868,66.7869053 29.8048713,65.8812805 29.035978,64.3869995 C28.5836878,63.5719372 27.5434204,63.2549685 26.7292981,63.7530622 C26.6388401,63.7983434 26.548382,63.8889059 26.457924,63.9341871 C24.5130763,65.609593 21.5731902,65.3831868 19.8997165,63.4360935 C19.3117393,62.8021561 18.9499072,61.9870938 18.8142201,61.1267502 C18.6333041,60.2211254 17.7287237,59.587188 16.8241434,59.768313 C16.7336854,59.768313 16.6432273,59.8135942 16.5075403,59.8588755 C14.1104024,60.7645003 11.4418904,59.587188 10.53731,57.1872823 C10.2207069,56.3722199 10.1302489,55.5118763 10.3111649,54.6515328 C10.401623,54.1534391 10.2659359,53.6100642 9.94933281,53.2478143 C9.63272969,52.8402831 9.1352105,52.6138769 8.63769132,52.6138769 L8.54723328,52.6138769 C5.96917931,52.6138769 3.93387355,50.5309399 3.88864453,47.9951904 C3.88864453,47.1348468 4.11478962,46.3197845 4.56707979,45.5952846 C5.06459898,44.7802223 4.79322487,43.7387538 3.97910257,43.2406601 C3.88864453,43.1953789 3.75295748,43.1500976 3.66249945,43.1048164 C1.26536155,42.2897541 -0.0462799407,39.6181609 0.813071381,37.2182551 C1.08444548,36.4031928 1.58196467,35.6786929 2.26039992,35.135318 C2.9840642,34.5466619 3.11975125,33.4599121 2.48654501,32.7354123 C2.39608697,32.6448498 2.35085796,32.5542873 2.26039992,32.5090061 C0.270323178,30.8788814 -0.0462799407,27.980882 1.58196467,25.9885074 C2.12471287,25.3092888 2.84837714,24.8111952 3.66249945,24.5395077 C4.56707979,24.222539 5.01936996,23.271633 4.70276684,22.3660082 C4.65753782,22.2754457 4.61230881,22.139602 4.56707979,22.0490395 C3.2554383,19.8755399 3.97910257,17.0228218 6.15009538,15.6643845 C6.87375965,15.2115721 7.73311098,14.9851659 8.63769132,14.9851659 C9.1352105,14.9851659 9.63272969,14.7587597 9.94933281,14.3512286 C10.2659359,13.9436974 10.401623,13.4456037 10.3111649,12.9475101 C9.81364576,10.4117606 11.4871194,8.01185486 13.9747153,7.51376122 C14.8340666,7.33263625 15.693418,7.42319873 16.5075403,7.74016742 C17.3668916,8.0571361 18.36193,7.64960494 18.7237621,6.74398012 C18.7689911,6.65341764 18.8142201,6.51757392 18.8142201,6.42701144 C19.2665103,3.89126196 21.6184192,2.21585606 24.1512441,2.62338722 C25.0105955,2.75923094 25.7794887,3.12148087 26.412695,3.710137 C27.1363593,4.34407437 28.2218557,4.25351189 28.8098329,3.52901204 C28.9002909,3.39316831 28.9455199,3.30260583 29.035978,3.16676211 C30.2571614,0.947981317 33.1065895,0.132918984 35.3228113,1.35551248 C36.0917046,1.76304365 36.6796818,2.39698102 37.131972,3.16676211 C37.5842622,3.98182444 38.6245296,4.29879313 39.4386519,3.80069948 C39.5291099,3.75541824 39.6195679,3.66485576 39.710026,3.61957452 C41.6548737,1.94416861 44.5495308,2.17057482 46.2682334,4.07238692 C46.8109816,4.70632429 47.2180428,5.52138663 47.3537298,6.3817302 C47.4894169,7.33263625 48.3939972,7.92129238 49.2985776,7.78544866 C49.3890356,7.78544866 49.5247226,7.74016742 49.6151807,7.69488618 C52.0123186,6.78926137 54.6808306,7.96657362 55.5854109,10.3664794 C55.902014,11.1815417 55.9924721,12.0418853 55.811556,12.9022289 C55.721098,13.4003225 55.856785,13.9436974 56.1733881,14.3059473 C56.4899913,14.7134785 56.9875104,14.9398847 57.4850296,14.9398847 C60.0630836,14.8946034 62.1436184,16.9322593 62.1888474,19.51329 C62.1888474,20.3736336 61.9627023,21.2339771 61.5104121,22.0037582 C61.012893,22.8188206 61.2842671,23.8602891 62.0983894,24.3583828 C62.1888474,24.403664 62.3245344,24.4489452 62.4149925,24.4942265 C64.8121304,25.3092888 66.1237719,27.980882 65.2644205,30.3807878 C64.9930464,31.1958501 64.4955273,31.9203499 63.817092,32.4637248 C63.0934277,33.052381 62.9577407,34.1391307 63.5909469,34.8636306 C63.681405,34.9541931 63.726634,35.0447556 63.817092,35.0900368 C65.8071687,36.7201615 66.1237719,39.6181609 64.4955273,41.6105355 C63.9527791,42.2897541 63.2291148,42.7878477 62.4149925,43.0595352 C61.5104121,43.3765038 61.058122,44.3274099 61.3747251,45.2330347 C61.4199541,45.3235972 61.4651831,45.4594409 61.5104121,45.5500034 C62.8220536,47.7235029 62.0983894,50.5762211 59.9273965,51.9346583 C59.2037323,52.3874707 58.38961,52.6138769 57.5302586,52.6138769 L57.4398006,52.6138769 C56.4899913,52.6138769 55.721098,53.383658 55.721098,54.3345641 C55.721098,54.4251266 55.721098,54.5609703 55.766327,54.6515328 C56.2186172,57.1872823 54.5903725,59.587188 52.0575476,60.0400004 C51.2434253,60.1758441 50.384074,60.1305629 49.5699517,59.8135942 C48.7106003,59.4513443 47.715562,59.9041567 47.3537298,60.8097815 C47.3085008,60.900344 47.3085008,60.9909065 47.2632718,61.1267502 C46.8562106,63.6624997 44.5043018,65.3831868 41.9714768,64.9756556 C41.1121255,64.8398119 40.2980032,64.477562 39.6647969,63.8889059 C38.9411327,63.2549685 37.8556363,63.345531 37.267659,64.0700308 C37.177201,64.1605933 37.131972,64.2511558 37.086743,64.3417183 C36.3178497,65.8812805 34.7348341,66.7869053 33.0613605,66.7869053 Z M27.4981914,60.5833753 C29.171665,60.5833753 30.7546806,61.4890001 31.5688029,62.9832811 C31.840177,63.5266559 32.4281542,63.8889059 33.0613605,63.8436246 C33.6945667,63.8436246 34.2373149,63.5266559 34.553918,62.9832811 C35.7751015,60.719219 38.6245296,59.9041567 40.8407514,61.1720314 C41.1121255,61.3078752 41.3834996,61.4890001 41.6096447,61.7154063 C42.3333089,62.3493437 43.4188054,62.2587812 44.0067826,61.5342814 C44.2329277,61.3078752 44.3686147,60.9909065 44.4138437,60.6739378 C44.8209049,58.1381883 47.1728138,56.4175012 49.7056387,56.8250323 C50.0222418,56.8703136 50.3388449,56.960876 50.6102191,57.0514385 C51.4695704,57.3684072 52.4646087,56.960876 52.8264409,56.0552512 C52.9168989,55.7382825 52.9621279,55.4213139 52.9168989,55.1496264 C52.4193797,52.6138769 54.0928534,50.2139712 56.5804493,49.7158775 C56.8970524,49.6705963 57.2136555,49.6253151 57.5302586,49.6253151 C58.1634649,49.6253151 58.7062131,49.3083464 59.0228162,48.7649715 C59.3394193,48.2215966 59.3394193,47.5876592 59.0228162,47.0442843 C57.7111747,44.8255035 58.434839,42.0180666 60.6058318,40.6596294 C60.8772059,40.4785044 61.14858,40.3426607 61.4651831,40.2520982 C62.3697635,39.9351295 62.8220536,38.9842235 62.5054505,38.0785987 C62.4149925,37.76163 62.2340764,37.5352238 61.9627023,37.3088176 C59.9726256,35.6786929 59.6560224,32.7806935 61.2842671,30.7883189 C61.4651831,30.5619127 61.6913282,30.3355065 61.9627023,30.1091003 C62.6863666,29.5204442 62.8220536,28.4336944 62.1888474,27.7091946 C62.0079313,27.4827884 61.7365572,27.3016634 61.4199541,27.1658197 C59.0228162,26.3507573 57.7111747,23.6791641 58.570526,21.2792584 C58.6609841,20.9622897 58.7966711,20.6906023 58.9775872,20.4189148 C59.4298774,19.6038525 59.1585033,18.5623839 58.344381,18.1095715 C58.0730068,17.9737278 57.8016327,17.8831653 57.5302586,17.8831653 L57.4398006,17.8831653 C54.8617466,17.8831653 52.8264409,15.8002283 52.8264409,13.2644788 C52.8264409,12.9927913 52.8716699,12.6758227 52.9168989,12.4041352 C53.097815,11.4985104 52.5098378,10.5928856 51.5600284,10.4117606 C51.2434253,10.3664794 50.9268222,10.3664794 50.6554481,10.5023231 C48.2583102,11.4079479 45.5897982,10.2306357 44.6852178,7.8307299 C44.5495308,7.51376122 44.5043018,7.24207377 44.4590727,6.92510509 C44.3233857,5.97419903 43.4188054,5.3855429 42.514225,5.52138663 C42.1976219,5.56666787 41.9262478,5.70251159 41.6548737,5.92891779 C39.710026,7.6043237 36.7701399,7.37791749 35.1418953,5.43082414 C34.9157502,5.20441794 34.7348341,4.9327305 34.599147,4.66104305 C34.1468569,3.84598072 33.1065895,3.52901204 32.2924672,4.02710568 C32.0210931,4.16294941 31.794948,4.38935561 31.6592609,4.66104305 C30.4380775,6.92510509 27.5886494,7.74016742 25.3724276,6.47229268 C25.1010535,6.33644896 24.8296794,6.11004275 24.6035343,5.92891779 C23.87987,5.29498042 22.7943736,5.3855429 22.2063964,6.11004275 C21.9802513,6.33644896 21.8445643,6.65341764 21.7993352,6.97038633 C21.3922741,9.50613581 19.0403652,11.226823 16.5075403,10.8192918 C16.1909371,10.7740105 15.874334,10.6834481 15.6029599,10.5928856 C14.7436086,10.2759169 13.7485702,10.6834481 13.3867381,11.5890729 C13.2962801,11.9060416 13.251051,12.2230102 13.2962801,12.4946977 C13.7937992,15.0304472 12.1203256,17.4303529 9.63272969,17.9284466 C9.31612657,17.9737278 8.99952345,18.0190091 8.68292033,18.0190091 C7.73311098,18.0190091 7.0094467,18.7887901 7.0094467,19.7396962 C7.0094467,20.0113836 7.09990474,20.3283523 7.23559179,20.5547585 C8.54723328,22.7282581 7.86879803,25.5809763 5.69780521,26.9394135 C5.38120209,27.1205384 5.06459898,27.2563822 4.74799586,27.3922259 C3.84341552,27.7091946 3.39112535,28.6601006 3.70772847,29.5657254 C3.7981865,29.8826941 3.97910257,30.1091003 4.25047667,30.3355065 C6.24055342,31.9656312 6.55715654,34.8636306 4.92891192,36.8560052 C4.74799586,37.0824114 4.52185077,37.3088176 4.25047667,37.5352238 C3.5268124,38.1238799 3.39112535,39.2106297 4.02433159,39.9351295 C4.20524765,40.1615358 4.47662175,40.3426607 4.79322487,40.4785044 C7.19036277,41.338848 8.50200426,43.96516 7.64265294,46.3650657 C7.55219491,46.6367532 7.41650786,46.9537219 7.23559179,47.1801281 L7.23559175,47.1801281 C6.91892945,47.7098824 6.91892945,48.3710601 7.23559183,48.9008153 C7.55219495,49.3989089 8.09494315,49.7158776 8.72814939,49.7158776 C10.1302489,49.7158776 11.4418904,50.3045337 12.3464707,51.3912835 C13.2510511,52.432752 13.6128832,53.8817517 13.3415091,55.240189 C13.160593,56.1458138 13.7485703,57.0514386 14.6983796,57.2325636 C15.0149827,57.2778448 15.3315859,57.2778448 15.60296,57.1420011 C18.0000979,56.2363763 20.6686099,57.4136885 21.5731902,59.8135943 C21.7088773,60.130563 21.7541063,60.4022504 21.7993353,60.7192191 C21.9350223,61.6701251 22.8396027,62.2587813 23.744183,62.1229376 C24.0607861,62.0776563 24.3321602,61.9418126 24.6035343,61.7154064 C25.3271986,60.9456253 26.412695,60.5833754 27.4981914,60.5833754 L27.4981914,60.5833753 Z" id="形状" fill="#724740" fill-rule="nonzero" opacity="0.8"></path>
                <path d="M49.5555928,20.7659903 C48.7364801,19.6793383 47.826355,18.6832406 46.7797111,17.7776973 L48.7364801,15.6043933 C49.9196428,16.6457681 50.9662867,17.7776973 51.8764119,19.0001808 L49.5555928,20.7659903 Z M16.4725438,20.7207131 L14.1062185,18.9549036 C21.4782321,9.17503559 35.1756155,6.68479142 45.5510421,13.2047034 L44.0038294,15.6496704 C34.902578,9.99002459 22.9344323,12.1633286 16.4725438,20.7207131 Z M17.2461502,50.6036432 C15.6079249,49.1547739 14.197231,47.4795187 13.0140683,45.6231549 L15.5169124,44.038454 C16.5635563,45.668432 17.7922253,47.1173014 19.2029193,48.3850621 L17.2461502,50.6036432 L17.2461502,50.6036432 Z M32.9913152,56.5802292 C28.531702,56.5802292 24.1631013,55.3124686 20.3860819,52.9580559 L21.9788009,50.4678117 C31.6261275,56.5349521 44.4133857,53.6372134 50.5112242,44.038454 L53.0140683,45.6231549 C48.6909739,52.4600071 41.1369352,56.5802292 32.9913152,56.5802292 Z" id="形状" fill="#7F4E46" fill-rule="nonzero" opacity="0.3"></path>
                <text id="CMCA" transform="translate(33.192933, 40.894267) rotate(-2.000000) translate(-33.192933, -40.894267) " font-family="PingFangSC-Regular, PingFang SC" font-size="7" font-weight="normal" letter-spacing="0.30098005" fill="#7F4E46">
                    <tspan x="21.786503" y="29.894267">Digital </tspan>
                    <tspan x="16.3265229" y="38.894267">Signature</tspan>
                    <tspan x="33.1929332" y="47.894267"></tspan>
                </text>
            </g>
        </g>
    </g>
</svg>