<?xml version="1.0" encoding="UTF-8"?>
<svg width="1239px" height="1269px" viewBox="0 0 1239 1269" version="1.1" xmlns="http://www.w3.org/2000/svg" xmlns:xlink="http://www.w3.org/1999/xlink">
    <!-- Generator: Sketch 60 (88103) - https://sketch.com -->
    <title>编组</title>
    <desc>Created with Sketch.</desc>
    <defs>
        <linearGradient x1="-18.3051989%" y1="29.0970973%" x2="135.41791%" y2="76.1393821%" id="linearGradient-1">
            <stop stop-color="#E1ECFF" offset="0%"></stop>
            <stop stop-color="#FFFFFF" offset="100%"></stop>
        </linearGradient>
        <linearGradient x1="49.9969651%" y1="27.4631431%" x2="49.9969651%" y2="135.713982%" id="linearGradient-2">
            <stop stop-color="#BBD0FE" offset="0%"></stop>
            <stop stop-color="#E0EBFF" offset="100%"></stop>
        </linearGradient>
        <linearGradient x1="-0.0112842494%" y1="50.1430773%" x2="100.057439%" y2="50.1430773%" id="linearGradient-3">
            <stop stop-color="#3158D3" offset="0%"></stop>
            <stop stop-color="#306EF3" offset="100%"></stop>
        </linearGradient>
        <linearGradient x1="41.9745776%" y1="69.5260273%" x2="56.7816606%" y2="33.5000864%" id="linearGradient-4">
            <stop stop-color="#3158D3" offset="0%"></stop>
            <stop stop-color="#306EF3" offset="100%"></stop>
        </linearGradient>
        <linearGradient x1="82.4075116%" y1="35.5591796%" x2="41.0217068%" y2="55.7601774%" id="linearGradient-5">
            <stop stop-color="#3158D3" offset="0%"></stop>
            <stop stop-color="#308AF3" offset="100%"></stop>
        </linearGradient>
        <linearGradient x1="53.7777204%" y1="27.1073053%" x2="-11.93432%" y2="274.617499%" id="linearGradient-6">
            <stop stop-color="#253C6F" offset="0%"></stop>
            <stop stop-color="#3068E8" offset="100%"></stop>
        </linearGradient>
        <linearGradient x1="9954.05558%" y1="33.1840085%" x2="10070.0668%" y2="268.178608%" id="linearGradient-7">
            <stop stop-color="#253C6F" offset="0%"></stop>
            <stop stop-color="#3068E8" offset="100%"></stop>
        </linearGradient>
        <linearGradient x1="1449.47699%" y1="42.3347825%" x2="1468.88664%" y2="122.936676%" id="linearGradient-8">
            <stop stop-color="#253C6F" offset="0%"></stop>
            <stop stop-color="#3068E8" offset="100%"></stop>
        </linearGradient>
        <linearGradient x1="67.014696%" y1="92.7913567%" x2="35.5948932%" y2="17.215669%" id="linearGradient-9">
            <stop stop-color="#3158D3" offset="0%"></stop>
            <stop stop-color="#308AF3" offset="100%"></stop>
        </linearGradient>
        <linearGradient x1="114.404663%" y1="19.8516224%" x2="-174.937552%" y2="155.308059%" id="linearGradient-10">
            <stop stop-color="#253C6F" offset="0%"></stop>
            <stop stop-color="#3068E8" offset="100%"></stop>
        </linearGradient>
        <linearGradient x1="7125.16686%" y1="51.3454616%" x2="7192.00918%" y2="-23.658172%" id="linearGradient-11">
            <stop stop-color="#253C6F" offset="0%"></stop>
            <stop stop-color="#3068E8" offset="100%"></stop>
        </linearGradient>
        <linearGradient x1="-0.00399932664%" y1="49.9923588%" x2="100.015488%" y2="49.9923588%" id="linearGradient-12">
            <stop stop-color="#3158D3" offset="0%"></stop>
            <stop stop-color="#308AF3" offset="100%"></stop>
        </linearGradient>
        <linearGradient x1="87.264649%" y1="71.1223326%" x2="-25.586857%" y2="22.6779631%" id="linearGradient-13">
            <stop stop-color="#253C6F" offset="0%"></stop>
            <stop stop-color="#3068E8" offset="100%"></stop>
        </linearGradient>
        <linearGradient x1="-6.4134129%" y1="34.336675%" x2="109.186099%" y2="66.4324785%" id="linearGradient-14">
            <stop stop-color="#E1ECFF" offset="0%"></stop>
            <stop stop-color="#FFFFFF" offset="100%"></stop>
        </linearGradient>
        <linearGradient x1="50.0219337%" y1="5.53638971%" x2="49.9888742%" y2="70.6513155%" id="linearGradient-15">
            <stop stop-color="#3158D3" offset="0%"></stop>
            <stop stop-color="#306EF3" offset="100%"></stop>
        </linearGradient>
        <linearGradient x1="50.02193%" y1="5.53592951%" x2="49.9888761%" y2="70.6454428%" id="linearGradient-16">
            <stop stop-color="#3158D3" offset="0%"></stop>
            <stop stop-color="#306EF3" offset="100%"></stop>
        </linearGradient>
        <linearGradient x1="50.0216158%" y1="5.53223326%" x2="49.9888742%" y2="70.6513155%" id="linearGradient-17">
            <stop stop-color="#3158D3" offset="0%"></stop>
            <stop stop-color="#306EF3" offset="100%"></stop>
        </linearGradient>
        <linearGradient x1="50.0216158%" y1="5.53223326%" x2="49.9885563%" y2="70.6513155%" id="linearGradient-18">
            <stop stop-color="#3158D3" offset="0%"></stop>
            <stop stop-color="#306EF3" offset="100%"></stop>
        </linearGradient>
        <linearGradient x1="81.0648009%" y1="53.861834%" x2="-24.4251763%" y2="28.1004999%" id="linearGradient-19">
            <stop stop-color="#253C6F" offset="0%"></stop>
            <stop stop-color="#3068E8" offset="100%"></stop>
        </linearGradient>
        <linearGradient x1="0%" y1="50%" x2="100%" y2="50%" id="linearGradient-20">
            <stop stop-color="#3158D3" offset="0%"></stop>
            <stop stop-color="#306EF3" offset="100%"></stop>
        </linearGradient>
        <linearGradient x1="40.3380634%" y1="49.3549307%" x2="111.096619%" y2="54.0743605%" id="linearGradient-21">
            <stop stop-color="#CBDDFE" offset="0%"></stop>
            <stop stop-color="#EFF5FF" offset="100%"></stop>
        </linearGradient>
        <linearGradient x1="-0.00841782753%" y1="50.0317864%" x2="100.033253%" y2="50.0317864%" id="linearGradient-22">
            <stop stop-color="#BBD0FE" offset="0%"></stop>
            <stop stop-color="#E0EBFF" offset="30%"></stop>
            <stop stop-color="#BBD0FE" offset="71%"></stop>
        </linearGradient>
        <linearGradient x1="35.8624371%" y1="49.9897392%" x2="94.294986%" y2="49.9897392%" id="linearGradient-23">
            <stop stop-color="#BBD0FE" offset="0%"></stop>
            <stop stop-color="#E0EBFF" offset="57%"></stop>
            <stop stop-color="#BBD0FE" offset="100%"></stop>
        </linearGradient>
        <linearGradient x1="-35.3087815%" y1="50.0375046%" x2="95.3306906%" y2="50.0375046%" id="linearGradient-24">
            <stop stop-color="#BBD0FE" offset="0%"></stop>
            <stop stop-color="#E0EBFF" offset="57%"></stop>
            <stop stop-color="#BBD0FE" offset="100%"></stop>
        </linearGradient>
        <linearGradient x1="44.9407335%" y1="52.2666753%" x2="92.783971%" y2="29.8867553%" id="linearGradient-25">
            <stop stop-color="#253C6F" offset="0%"></stop>
            <stop stop-color="#3068E8" offset="100%"></stop>
        </linearGradient>
        <linearGradient x1="145.347731%" y1="28.9427681%" x2="-25.0121836%" y2="66.5680566%" id="linearGradient-26">
            <stop stop-color="#3158D3" offset="0%"></stop>
            <stop stop-color="#306EF3" offset="100%"></stop>
        </linearGradient>
        <linearGradient x1="0%" y1="50%" x2="100%" y2="50%" id="linearGradient-27">
            <stop stop-color="#E1ECFF" offset="0%"></stop>
            <stop stop-color="#FFFFFF" offset="100%"></stop>
        </linearGradient>
        <linearGradient x1="9.25470619e-05%" y1="49.9959132%" x2="100%" y2="49.9959132%" id="linearGradient-28">
            <stop stop-color="#BBD0FE" offset="0%"></stop>
            <stop stop-color="#E0EBFF" offset="57%"></stop>
        </linearGradient>
        <linearGradient x1="34.7369135%" y1="104.043575%" x2="50.2739204%" y2="48.9453534%" id="linearGradient-29">
            <stop stop-color="#CBDDFE" offset="0%"></stop>
            <stop stop-color="#EFF5FF" offset="100%"></stop>
        </linearGradient>
        <linearGradient x1="48.7280457%" y1="50.4783009%" x2="43.2893851%" y2="-10.2089392%" id="linearGradient-30">
            <stop stop-color="#3158D3" offset="0%"></stop>
            <stop stop-color="#306EF3" offset="100%"></stop>
        </linearGradient>
        <linearGradient x1="49.962829%" y1="51.2637103%" x2="48.9657145%" y2="69.7767806%" id="linearGradient-31">
            <stop stop-color="#253C6F" offset="0%"></stop>
            <stop stop-color="#3068E8" offset="100%"></stop>
        </linearGradient>
        <linearGradient x1="15.1051594%" y1="92.1683297%" x2="43.5028591%" y2="58.43291%" id="linearGradient-32">
            <stop stop-color="#3158D3" offset="0%"></stop>
            <stop stop-color="#306EF3" offset="100%"></stop>
        </linearGradient>
        <linearGradient x1="71.8703096%" y1="92.8134229%" x2="16.1875313%" y2="-27.3978936%" id="linearGradient-33">
            <stop stop-color="#3158D3" offset="0%"></stop>
            <stop stop-color="#306EF3" offset="100%"></stop>
        </linearGradient>
        <linearGradient x1="-9.59997954e-14%" y1="49.9978401%" x2="99.9999648%" y2="49.9978401%" id="linearGradient-34">
            <stop stop-color="#3158D3" offset="0%"></stop>
            <stop stop-color="#306EF3" offset="100%"></stop>
        </linearGradient>
        <linearGradient x1="81.4260146%" y1="-103.052484%" x2="62.2206656%" y2="-9.51842183%" id="linearGradient-35">
            <stop stop-color="#BBD0FE" offset="0%"></stop>
            <stop stop-color="#E0EBFF" offset="39%"></stop>
        </linearGradient>
        <linearGradient x1="0%" y1="50%" x2="100%" y2="50%" id="linearGradient-36">
            <stop stop-color="#28C4FF" offset="0%"></stop>
            <stop stop-color="#34EDCB" offset="100%"></stop>
        </linearGradient>
        <linearGradient x1="-5.90335641e-14%" y1="50.0026749%" x2="100%" y2="50.0026749%" id="linearGradient-37">
            <stop stop-color="#3158D3" offset="0%"></stop>
            <stop stop-color="#306EF3" offset="100%"></stop>
        </linearGradient>
        <linearGradient x1="-0.0128667407%" y1="49.995924%" x2="100%" y2="49.995924%" id="linearGradient-38">
            <stop stop-color="#3158D3" offset="0%"></stop>
            <stop stop-color="#308AF3" offset="100%"></stop>
        </linearGradient>
        <linearGradient x1="-102.184181%" y1="57.2596489%" x2="134.267971%" y2="45.9094243%" id="linearGradient-39">
            <stop stop-color="#E1ECFF" offset="0%"></stop>
            <stop stop-color="#FFFFFF" offset="100%"></stop>
        </linearGradient>
        <linearGradient x1="48.4502108%" y1="26.4385005%" x2="56.9406516%" y2="143.28421%" id="linearGradient-40">
            <stop stop-color="#253C6F" offset="0%"></stop>
            <stop stop-color="#3068E8" offset="100%"></stop>
        </linearGradient>
        <linearGradient x1="52.8003415%" y1="16.4843504%" x2="43.3894593%" y2="151.053616%" id="linearGradient-41">
            <stop stop-color="#253C6F" offset="0%"></stop>
            <stop stop-color="#3068E8" offset="100%"></stop>
        </linearGradient>
        <linearGradient x1="45.9642457%" y1="14.8844031%" x2="53.0300775%" y2="85.1186984%" id="linearGradient-42">
            <stop stop-color="#253C6F" offset="0%"></stop>
            <stop stop-color="#3068E8" offset="100%"></stop>
        </linearGradient>
        <linearGradient x1="0.018115942%" y1="49.9761256%" x2="100%" y2="49.9761256%" id="linearGradient-43">
            <stop stop-color="#3158D3" offset="0%"></stop>
            <stop stop-color="#308AF3" offset="100%"></stop>
        </linearGradient>
        <linearGradient x1="67.6427954%" y1="25.4694818%" x2="4.12220152%" y2="91.6388404%" id="linearGradient-44">
            <stop stop-color="#253C6F" offset="0%"></stop>
            <stop stop-color="#3068E8" offset="100%"></stop>
        </linearGradient>
        <linearGradient x1="49.6327161%" y1="50.1063858%" x2="69.2124752%" y2="33.877147%" id="linearGradient-45">
            <stop stop-color="#3158D3" offset="0%"></stop>
            <stop stop-color="#306EF3" offset="100%"></stop>
        </linearGradient>
        <linearGradient x1="81.8493939%" y1="47.3744244%" x2="31.6748819%" y2="51.5071829%" id="linearGradient-46">
            <stop stop-color="#BBD0FE" offset="0%"></stop>
            <stop stop-color="#E0EBFF" offset="39%"></stop>
        </linearGradient>
        <linearGradient x1="-0.052025175%" y1="49.9959765%" x2="99.9582159%" y2="49.9959765%" id="linearGradient-47">
            <stop stop-color="#253C6F" offset="0%"></stop>
            <stop stop-color="#3068E8" offset="100%"></stop>
        </linearGradient>
        <linearGradient x1="0.000576529832%" y1="49.9986855%" x2="99.9636809%" y2="49.9986855%" id="linearGradient-48">
            <stop stop-color="#3158D3" offset="0%"></stop>
            <stop stop-color="#308AF3" offset="100%"></stop>
        </linearGradient>
        <linearGradient x1="-0.0515195901%" y1="49.987239%" x2="99.9477756%" y2="49.987239%" id="linearGradient-49">
            <stop stop-color="#3158D3" offset="0%"></stop>
            <stop stop-color="#308AF3" offset="100%"></stop>
        </linearGradient>
        <linearGradient x1="0.0363051263%" y1="49.9978451%" x2="99.9636946%" y2="49.9978451%" id="linearGradient-50">
            <stop stop-color="#28C4FF" offset="0%"></stop>
            <stop stop-color="#34EDCB" offset="100%"></stop>
        </linearGradient>
        <linearGradient x1="0.000256719423%" y1="50.0001833%" x2="100%" y2="50.0001833%" id="linearGradient-51">
            <stop stop-color="#253C6F" offset="0%"></stop>
            <stop stop-color="#3068E8" offset="100%"></stop>
        </linearGradient>
        <linearGradient x1="0.0751079498%" y1="49.9908426%" x2="100.07492%" y2="49.9908426%" id="linearGradient-52">
            <stop stop-color="#3158D3" offset="0%"></stop>
            <stop stop-color="#308AF3" offset="100%"></stop>
        </linearGradient>
    </defs>
    <g id="Page-1" stroke="none" stroke-width="1" fill="none" fill-rule="evenodd">
        <g id="3" transform="translate(-101.000000, -86.000000)">
            <g id="编组" transform="translate(101.000000, 85.000000)">
                <g id="box_empty" transform="translate(831.000000, 539.000000)">
                    <path d="M312.6,266.78 C317.06,269.35 317.08,273.53 312.65,276.1 L196.48,343.61 C192.05,346.19 184.85,346.19 180.39,343.61 L63.46,276.1 C59,273.53 58.97,269.35 63.4,266.78 L179.57,199.27 C184,196.69 191.21,196.69 195.67,199.27 L312.6,266.78 Z" id="Path" fill="url(#linearGradient-1)"></path>
                    <path d="M266.13,77.47 C266.123173,77.5944642 266.106453,77.7181879 266.08,77.84 C266.08,77.94 266.08,78.04 266.01,78.14 C265.94,78.24 265.95,78.38 265.91,78.5 L265.79,78.78 C265.73,78.91 265.68,79.03 265.61,79.15 C265.54,79.27 265.51,79.33 265.45,79.42 C265.39,79.51 265.28,79.69 265.18,79.83 C265.08,79.97 264.98,80.09 264.86,80.22 L264.79,80.31 C264.63,80.48 264.46,80.64 264.29,80.8 L263.92,81.1 C263.814417,81.1921303 263.704278,81.278906 263.59,81.36 C263.46,81.46 263.31,81.55 263.17,81.64 C263.03,81.73 262.88,81.84 262.72,81.93 L141.93,152.13 C141.57,152.33 141.2,152.52 140.81,152.69 L140.48,152.84 L139.55,153.19 L139.21,153.31 L138.6,153.48 C138.44,153.48 138.29,153.57 138.13,153.6 C137.97,153.63 137.7,153.7 137.48,153.74 L137.03,153.83 C136.59,153.91 136.14,153.97 135.69,154.02 L135.27,154.02 L134.47,154.07 L133.31,154.07 L132.76,154.07 L132.17,154.07 L131.62,154.02 C131.42,154.02 131.22,154.02 131.03,153.96 L130.5,153.88 L129.87,153.78 L129.38,153.68 L128.65,153.5 L128.24,153.39 C127.81,153.26 127.38,153.12 126.97,152.96 L126.38,152.7 L126.07,152.57 C125.77,152.43 125.48,152.28 125.2,152.12 L3.62,81.94 C1.62,80.76 0.43,79.25 0.18,77.72 C0.165019836,77.4969179 0.165019836,77.2730821 0.18,77.05 L0,235.5 C0,237.27 1.16,239.04 3.49,240.38 L125,310.58 C125.28,310.74 125.57,310.89 125.87,311.03 L126.17,311.16 L126.71,311.39 L126.77,311.39 C127.18,311.55 127.61,311.69 128.04,311.81 L128.14,311.81 L128.45,311.88 C128.69,311.95 128.93,312.01 129.18,312.06 L129.38,312.06 L129.67,312.11 L130.3,312.22 L130.55,312.22 C130.643269,312.215084 130.736731,312.215084 130.83,312.22 L131.42,312.28 L131.7,312.28 L131.97,312.28 L132.56,312.28 L132.87,312.28 L134.27,312.28 C134.54,312.28 134.8,312.28 135.07,312.22 L135.39,312.22 L135.49,312.22 C135.94,312.17 136.39,312.11 136.83,312.03 L136.9,312.03 L137.28,311.95 L137.93,311.81 L138.4,311.69 C138.6,311.63 138.81,311.58 139.01,311.51 L139.14,311.51 L139.35,311.43 C139.67,311.32 139.97,311.2 140.28,311.07 L140.61,310.93 C141,310.76 141.37,310.57 141.73,310.37 L262.52,240.17 L262.66,240.09 L262.97,239.88 C263.11,239.79 263.26,239.7 263.39,239.6 L263.72,239.34 L264.09,239.04 L264.16,238.98 L264.59,238.55 L264.66,238.46 L264.89,238.19 C264.923149,238.152461 264.953244,238.112334 264.98,238.07 C265.077022,237.934641 265.167137,237.794462 265.25,237.65 C265.295803,237.597661 265.336021,237.540686 265.37,237.48 C265.373765,237.450118 265.373765,237.419882 265.37,237.39 C265.436713,237.271535 265.493571,237.147785 265.54,237.02 C265.580555,236.952106 265.617279,236.881997 265.65,236.81 L265.65,236.73 C265.689263,236.61511 265.72264,236.498291 265.75,236.38 C265.75,236.3 265.8,236.22 265.82,236.14 L265.82,236.08 C265.829066,235.956833 265.829066,235.833167 265.82,235.71 C265.82,235.62 265.82,235.54 265.82,235.46 C265.824929,235.426849 265.824929,235.393151 265.82,235.36 L265.98,76.91 C266.16,77.24 266.14,77.35 266.13,77.47 Z" id="Path" fill="url(#linearGradient-2)"></path>
                    <path d="M142.19,226.11 C141.811388,226.32848 141.420769,226.525458 141.02,226.7 L140.67,226.86 C140.35,226.99 140.03,227.11 139.67,227.22 L139.45,227.31 L139.32,227.31 L138.68,227.49 L138.19,227.62 L137.51,227.77 L137.11,227.85 L137.04,227.85 C136.57,227.93 136.1,228 135.63,228.05 L135.52,228.05 L135.19,228.05 L134.35,228.11 L132.9,228.11 L132.58,228.11 L131.96,228.11 L131.68,228.11 L131.38,228.11 L130.76,228.04 L130.47,228.04 L130.21,228.04 L129.55,227.93 L129.24,227.88 L129.04,227.88 L128.27,227.69 L127.95,227.61 L127.84,227.61 C127.39,227.48 126.94,227.33 126.51,227.16 L126.44,227.16 C126.25,227.09 126.07,227 125.88,226.92 L125.56,226.78 C125.253333,226.626667 124.953333,226.466667 124.66,226.3 L0,154.13 L0,168.13 C0,169.89 1.16,171.66 3.49,173.01 L125,243.25 C125.28,243.41 125.57,243.56 125.87,243.7 L126.17,243.84 L126.71,244.07 L126.77,244.07 C127.18,244.23 127.61,244.37 128.04,244.5 L128.14,244.5 L128.45,244.58 L129.18,244.76 L129.38,244.81 L129.67,244.81 L130.3,244.92 L130.55,244.92 L130.83,244.92 L131.42,244.99 L131.7,244.99 L132,244.99 L132.59,244.99 L134.11,244.99 L134.3,244.99 L135.1,244.94 L135.42,244.94 L135.52,244.94 C135.97,244.94 136.42,244.84 136.86,244.76 L136.93,244.76 L137.31,244.68 L137.96,244.54 L138.43,244.41 L139.04,244.24 L139.17,244.24 L139.38,244.16 C139.7,244.05 140,243.94 140.31,243.81 L140.64,243.67 C141.03,243.49 141.4,243.31 141.76,243.1 L262.55,172.91 L262.69,172.82 C262.8,172.76 262.89,172.69 263,172.62 C263.11,172.55 263.29,172.43 263.42,172.33 C263.534278,172.248906 263.644417,172.16213 263.75,172.07 L264.12,171.77 L264.19,171.71 L264.62,171.28 L264.69,171.19 L264.92,170.92 C264.953149,170.882461 264.983244,170.842334 265.01,170.8 C265.109174,170.6696 265.199381,170.532619 265.28,170.39 L265.4,170.22 C265.403765,170.190118 265.403765,170.159882 265.4,170.13 C265.462911,170.009633 265.519652,169.886139 265.57,169.76 C265.612588,169.68978 265.649377,169.616203 265.68,169.54 C265.68,169.54 265.68,169.49 265.68,169.47 C265.68,169.45 265.75,169.23 265.78,169.12 C265.81,169.01 265.83,168.96 265.85,168.88 L265.85,169 C265.857293,168.876858 265.857293,168.753142 265.85,168.63 C265.85,168.55 265.85,168.47 265.85,168.39 C265.857293,168.3535 265.857293,168.3165 265.85,168.28 L265.85,154.16 L142.19,226.11 Z" id="Path" fill="url(#linearGradient-3)"></path>
                    <path d="M262.67,72.24 C267.3,74.92 267.32,79.24 262.67,81.93 L141.88,152.13 C137.28,154.8 129.78,154.8 125.15,152.13 L3.62,81.94 C-1.01,79.26 -1.04,74.94 3.56,72.24 L124.35,2.05 C128.96,-0.63 136.45,-0.63 141.09,2.05 L262.67,72.24 Z" id="Path" fill="url(#linearGradient-4)"></path>
                </g>
                <g id="man2" transform="translate(746.000000, 326.000000)">
                    <path d="M225.13,41.35 C225.13,41.35 240.76,61.1 238.76,68.1 C236.76,75.1 221.76,77.17 207.01,76.51 C192.26,75.85 181.26,51.1 181.26,51.1 L225.13,41.35 Z" id="Path" fill="url(#linearGradient-5)"></path>
                    <path d="M122.67,153.25 L110.6,172.65 C110.6,172.65 42.86,180.9 36.14,176.73 C23.43,168.85 -7,189.61 1.93,189 C10.86,188.39 12.4,186.91 16.27,185.77 C19.9,184.7 20.27,199.04 25.27,198.66 C29.5849768,198.189712 33.8688981,197.46849 38.1,196.5 C38.1,196.5 92.94,207.36 113.33,207.83 C132.77,208.28 146.88,173.39 146.88,173.39 L122.67,153.25 Z" id="Path" fill="#FFBBB6"></path>
                    <path d="M144.72,525 C144.72,525 145.41,541.13 143.79,545.39 C142.17,549.65 139.31,556.9 135.19,569.39 C131.07,581.88 124.26,589.78 111.3,585.25 C98.34,580.72 114.02,556.01 115.47,548.95 C116.92,541.89 118.24,521.65 118.24,521.65 L144.72,525 Z" id="Path" fill="url(#linearGradient-6)"></path>
                    <path d="M73.79,495 C73.79,495 78.79,513.88 75.09,516.56 C71.39,519.24 55.75,522.19 44.01,534.76 C35.01,544.34 24.68,549.45 16.32,538.56 C7.96,527.67 35.72,512.56 40.79,507.44 C45.86,502.32 56.23,489 56.23,489 L73.79,495 Z" id="Path" fill="url(#linearGradient-7)"></path>
                    <path d="M251.88,247.43 C251.88,247.43 268,302 234.23,329.9 C200.46,357.8 170.81,386.61 170.81,386.61 L148,527.15 L114.24,524.05 C114.24,524.05 117.08,379.98 118.24,369.83 C119.4,359.68 159.48,329.46 159.48,329.46 C159.48,329.46 107.95,365.46 106.21,371.46 C104.47,377.46 76.45,499.53 76.45,499.53 L47.45,494.99 C47.45,494.99 46.85,356.83 54.27,342.51 C61.69,328.19 167.74,230.42 167.74,230.42 L251.88,247.43 Z" id="Path" fill="url(#linearGradient-8)"></path>
                    <path d="M150.87,173.71 C150.87,173.71 152,201.56 143,252.13 C143,252.13 197.33,303.13 258.87,260.96 L246.87,176.07 L258.59,193.07 C258.59,193.07 281.27,190.9 289.87,172.07 L261.67,114.53 C250.67,92.06 188.33,77.2 180.38,76.63 C172.43,76.06 160.68,77.72 153.15,91.24 C145.62,104.76 113.35,156.24 113.35,156.24 C113.35,156.24 123.53,177.43 146.35,180.92 L150.87,173.71 Z" id="Path" fill="url(#linearGradient-9)"></path>
                    <path d="M287.64,176.07 C290.289896,183.867672 293.384982,191.50689 296.91,198.95 C305.73,217.09 290.13,278.57 293.22,283.35 C303.12,298.64 299.39,308.06 297.69,310.96 C295.99,313.86 296.4,301.78 293.59,298.89 C293.59,298.89 296.49,312.52 293.59,316.94 C290.69,321.36 288.09,297.43 288.09,297.43 C288.09,297.43 289.42,315.04 285.82,319.52 C282.22,324 282.63,298.13 282.63,298.13 C282.63,298.13 279.83,314.51 276.91,314.94 C273.99,315.37 276.67,295.27 275.47,293.6 C274.27,291.93 269.26,301.96 265.14,300.72 C261.02,299.48 274.62,279.82 274.62,279.82 L273.39,206 L261.14,192.64 C266.398869,191.527563 271.457122,189.618916 276.14,186.98 C282.54,183.52 287.64,176.07 287.64,176.07 Z" id="Path" fill="#FFBBB6"></path>
                    <path d="M188.47,88 C188.47,88 186.34,96.39 196.32,99.77 C208.89,104.03 225.55,98.18 218.67,82.12 L216.5,71.4 C216.5,71.4 223.28,60.49 222.5,42.19 C221.72,23.89 187.6,6.54 177.63,22.88 C167.66,39.22 173.46,81.27 176.32,84.68 C179.18,88.09 188.47,88 188.47,88 Z" id="Path" fill="#FFBBB6"></path>
                    <rect id="Rectangle" fill="url(#linearGradient-10)" x="197.25" y="0.83" width="12.01" height="7.17" rx="3.58"></rect>
                    <path d="M209.35,41.34 C209.35,41.34 183.35,43.34 174.25,32.61 L172,55.36 C172,55.36 167.83,43.76 169.15,33.98 L184.25,4.85 C184.25,4.85 222.54,-2.65 229.78,21.02 C237.95,47.73 219.05,59.02 222.54,66.73 C226.03,74.44 219.16,78.36 215.19,73.34 C211.22,68.32 220.48,60.64 218.89,53.5 C217.3,46.36 209.37,62.23 206.2,62.23 C203.03,62.23 209.35,41.34 209.35,41.34 Z" id="Path" fill="url(#linearGradient-11)"></path>
                    <path d="M168.89,37.22 C168.89,37.22 169.97,31.43 191.13,32.35 C217.88,33.51 227.13,52.7 227.13,52.7 C227.13,52.7 233,46 233,28.1 C233,13.6 222.41,4.05 199.57,2.8 C173.87,1.39 166.38,20.86 168.89,37.22 Z" id="Path" fill="url(#linearGradient-12)"></path>
                    <path d="M173.59,25.87 C173.59,25.87 175.26,13.35 188.26,13.68 C201.26,14.01 199.5,25.87 199.5,25.87 C199.5,25.87 186.09,22.72 173.59,25.87 Z" id="Path" fill="url(#linearGradient-13)"></path>
                </g>
                <g id="table" transform="translate(385.000000, 469.000000)">
                    <path d="M721.66,500 C730.31,505 730.35,513.08 721.76,518.07 L517.93,636.51 C509.34,641.51 495.37,641.51 486.72,636.51 L35.86,376.21 C27.22,371.21 27.17,363.13 35.76,358.13 L239.6,239.68 C248.19,234.68 262.16,234.68 270.8,239.68 L721.66,500 Z" id="Path" fill="url(#linearGradient-14)"></path>
                    <path d="M27.55,131.33 L45.94,131.33 L45.94,362.72 C45.94,367.80102 41.8210197,371.92 36.74,371.92 L36.74,371.92 C31.6589803,371.92 27.54,367.80102 27.54,362.72 L27.54,131.33 L27.55,131.33 Z" id="Path" fill="url(#linearGradient-15)"></path>
                    <path d="M465.94,383.59 L484.33,383.59 L484.33,615 C484.33,620.08102 480.21102,624.2 475.13,624.2 L475.13,624.2 C470.04898,624.2 465.93,620.08102 465.93,615 L465.93,383.59 L465.94,383.59 Z" id="Path" fill="url(#linearGradient-16)"></path>
                    <path d="M226.78,19.28 L245.17,19.28 L245.17,250.67 C245.17,255.75102 241.05102,259.87 235.97,259.87 L235.97,259.87 C230.88898,259.87 226.77,255.75102 226.77,250.67 L226.77,19.28 L226.78,19.28 Z" id="Path" fill="url(#linearGradient-17)"></path>
                    <path d="M665.17,271.54 L683.56,271.54 L683.56,502.93 C683.56,508.01102 679.44102,512.13 674.36,512.13 L674.36,512.13 C669.27898,512.13 665.16,508.01102 665.16,502.93 L665.16,271.54 L665.17,271.54 Z" id="Path" fill="url(#linearGradient-18)"></path>
                    <path d="M692.77,282.28 L488.93,400.74 C480.34,405.74 466.37,405.74 457.73,400.74 L6.86,140.43 C2.52,137.92 0.35,134.62 0.35,131.33 L0.27,147.13 C0.27,150.42 2.43,153.71 6.77,156.22 L457.64,416.53 C466.28,421.53 480.25,421.53 488.84,416.53 L692.68,298.07 C696.95,295.59 699.08,292.35 699.09,289.07 L699.18,273.27 C699.17,276.55 697,279.8 692.77,282.28 Z" id="Path" fill="url(#linearGradient-19)"></path>
                    <path d="M692.67,264.2 C701.31,269.2 701.36,277.29 692.77,282.28 L488.93,400.74 C480.34,405.74 466.37,405.74 457.73,400.74 L6.86,140.43 C-1.78,135.43 -1.82,127.35 6.77,122.36 L210.61,3.9 C219.2,-1.1 233.16,-1.1 241.8,3.9 L692.67,264.2 Z" id="Path" fill="#EAF0FE"></path>
                </g>
                <g id="paper2" transform="translate(532.000000, 535.000000)">
                    <polygon id="Path" fill="url(#linearGradient-20)" points="111.44 0.19 191.23 46.26 80.74 110.05 0.95 63.98"></polygon>
                    <polygon id="Path" fill="#EAF0FE" points="22.46 61.95 84.25 97.63 80.6 99.74 18.81 64.06"></polygon>
                    <polygon id="Path" fill="#EAF0FE" points="47.56 47.46 109.36 83.14 105.7 85.25 43.91 49.57"></polygon>
                    <polygon id="Path" fill="#EAF0FE" points="58.16 41.34 119.96 77.01 116.31 79.12 54.51 43.45"></polygon>
                    <polygon id="Path" fill="#EAF0FE" points="93.43 49.45 130.57 70.89 126.92 73 89.78 51.56"></polygon>
                    <polygon id="Path" fill="#EAF0FE" points="83.05 26.97 144.85 62.64 141.2 64.75 79.4 29.07"></polygon>
                    <polygon id="Path" fill="#EAF0FE" points="93.66 20.84 155.46 56.52 151.81 58.63 90.01 22.95"></polygon>
                    <polygon id="Path" fill="#EAF0FE" points="128.93 28.96 166.07 50.4 162.41 52.5 125.28 31.07"></polygon>
                    <polygon id="Path" fill="#EAF0FE" points="44.9 65.54 78.04 84.67 74.39 86.78 41.25 67.65"></polygon>
                </g>
                <g id="paper1" transform="translate(533.000000, 530.000000)">
                    <polygon id="Path" fill="#FFFFFF" points="111.23 0.08 191.02 46.14 80.54 109.93 0.75 63.87"></polygon>
                    <polygon id="Path" fill="#EAF0FE" points="22.25 61.84 84.04 97.52 80.39 99.63 18.6 63.95"></polygon>
                    <polygon id="Path" fill="#EAF0FE" points="47.35 47.35 109.15 83.03 105.5 85.13 43.7 49.46"></polygon>
                    <polygon id="Path" fill="#EAF0FE" points="57.96 41.23 119.75 76.9 116.1 79.01 54.31 43.33"></polygon>
                    <polygon id="Path" fill="#EAF0FE" points="93.23 49.34 130.36 70.78 126.71 72.89 89.58 51.45"></polygon>
                    <polygon id="Path" fill="#EAF0FE" points="82.85 26.86 144.64 62.53 140.99 64.64 79.2 28.96"></polygon>
                    <polygon id="Path" fill="#EAF0FE" points="93.45 20.73 155.25 56.41 151.6 58.52 89.8 22.84"></polygon>
                    <polygon id="Path" fill="#EAF0FE" points="128.72 28.85 165.86 50.28 162.21 52.39 125.07 30.96"></polygon>
                    <polygon id="Path" fill="#EAF0FE" points="44.69 65.43 77.83 84.56 74.18 86.67 41.04 67.54"></polygon>
                </g>
                <g id="laptop" transform="translate(676.000000, 549.000000)">
                    <polygon id="Path" fill="url(#linearGradient-21)" points="282.25 169.32 190.95 222.38 90.57 164.43 181.88 111.37"></polygon>
                    <path d="M238.22,135.6 C238.215664,135.619765 238.215664,135.640235 238.22,135.66 C238.144778,135.852004 238.051,136.03621 237.94,136.21 L237.87,136.31 C237.729957,136.497664 237.5726,136.671762 237.4,136.83 C237.269323,136.937938 237.13242,137.038111 236.99,137.13 C236.87,137.22 236.76,137.31 236.62,137.4 L153.62,185.61 C153.050763,185.923392 152.441977,186.158835 151.81,186.31 L151.53,186.38 C150.872881,186.524427 150.20275,186.601492 149.53,186.61 L149.46,186.61 C148.736566,186.611521 148.015292,186.531007 147.31,186.37 L147.23,186.37 C146.554824,186.216123 145.904978,185.966959 145.3,185.63 L2.41,103.14 C1.42262875,102.6974 0.750103646,101.757393 0.65,100.68 L0.65,109.19 C0.751628644,110.261453 1.41942423,111.196367 2.4,111.64 L145.26,194.12 C145.534346,194.274564 145.818254,194.411508 146.11,194.53 C146.343333,194.616667 146.583333,194.696667 146.83,194.77 L147.18,194.86 L147.26,194.86 L147.45,194.86 L148.03,194.96 L148.61,195.03 L148.61,195 L148.61,195 L148.61,195.06 L149.19,195.06 L149.8,195.06 L150.46,195.06 C150.71,195.06 150.97,195 151.21,194.96 L151.53,194.88 L151.82,194.81 L152.33,194.68 C152.782456,194.536997 153.218279,194.345905 153.63,194.11 L236.63,145.89 L236.7,145.89 C236.81,145.82 236.9,145.74 237,145.67 C237.1,145.6 237.29,145.47 237.41,145.37 L237.41,145.37 C237.540595,145.246597 237.660988,145.112827 237.77,144.97 L237.84,144.88 L237.9,144.78 L238.01,144.62 C238.073339,144.511651 238.126885,144.397866 238.17,144.28 C238.17097,144.263347 238.17097,144.246653 238.17,144.23 C238.171277,144.206684 238.171277,144.183316 238.17,144.16 C238.194588,144.091393 238.214632,144.021241 238.23,143.95 C238.244657,143.837141 238.244657,143.722859 238.23,143.61 L238.23,143.61 L238.23,135.1 C238.246037,135.266492 238.240993,135.434283 238.22,135.6 L238.22,135.6 Z" id="Path" fill="url(#linearGradient-22)"></path>
                    <path d="M236.57,132.55 C238.89,133.89 238.9,136.06 236.57,137.4 L153.57,185.61 C150.940741,186.949355 147.829259,186.949355 145.2,185.61 L2.41,103.14 C0.08,101.79 0.06,99.62 2.41,98.28 L85.41,50.06 C88.0474016,48.725217 91.1625984,48.725217 93.8,50.06 L236.57,132.55 Z" id="Path" fill="#FFFFFF"></path>
                    <path d="M69.35,80.15 C66.9079628,78.7304979 63.8920372,78.7304979 61.45,80.15 L27.34,100 C25.53,101 25.54,102.76 27.34,103.82 L139.74,168.71 C141.801998,169.75424 144.238002,169.75424 146.3,168.71 L178.78,149.84 C179.933327,149.170892 180.643201,147.938367 180.643201,146.605 C180.643201,145.271633 179.933327,144.039108 178.78,143.37 L69.35,80.15 Z" id="Path" fill="url(#linearGradient-23)"></path>
                    <path d="M174.54,102.7 C175.22,103.09 175.22,103.7 174.54,104.11 L150.4,118.11 C149.633439,118.500085 148.726561,118.500085 147.96,118.11 L106.39,94.11 C106.083179,94.0121269 105.874889,93.727053 105.874889,93.405 C105.874889,93.082947 106.083179,92.7978731 106.39,92.7 L130.53,78.7 C131.296561,78.3099148 132.203439,78.3099148 132.97,78.7 L174.54,102.7 Z" id="Path" fill="url(#linearGradient-24)"></path>
                    <path d="M151.63,80.82 L13.05,0.82 C11.885368,-0.0223010055 10.3583623,-0.175001577 9.05,0.42 L2.58,4.19 C3.58,3.59 5.03,3.67 6.58,4.58 L145.15,84.58 C148.480696,86.7460242 150.576431,90.3726854 150.79,94.34 L150.51,193.18 C150.641602,194.594013 150.01361,195.971788 148.86,196.8 L155.33,193.04 C156.495236,192.221392 157.126477,190.836488 156.98,189.42 L157.26,90.58 C157.05029,86.6140696 154.958097,82.9871064 151.63,80.82 L151.63,80.82 Z" id="Path" fill="url(#linearGradient-25)"></path>
                    <path d="M145.15,84.58 C148.480696,86.7460242 150.576431,90.3726854 150.79,94.34 L150.51,193.18 C150.51,196.77 147.96,198.18 144.84,196.41 L6.26,116.41 C2.9319027,114.242894 0.839709778,110.61593 0.63,106.65 L0.91,7.81 C0.91,4.22 3.46,2.81 6.58,4.58 L145.15,84.58 Z" id="Path" fill="url(#linearGradient-26)"></path>
                </g>
                <g id="plant" transform="translate(465.000000, 810.000000)">
                    <polygon id="Path" fill="url(#linearGradient-27)" points="264.18 418.06 176.34 367.34 103.73 409.26 191.57 459.98"></polygon>
                    <path d="M212.48,271 L212.15,388.65 C212.15,397.58 206.25,406.49 194.53,413.3 C170.94,427.01 132.53,427.01 108.81,413.3 C96.86,406.4 90.89,397.3 90.9198875,388.3 L91.25,270.65 C91.25,279.65 97.19,288.76 109.14,295.65 C132.89,309.37 171.27,309.37 194.87,295.65 C206.59,288.83 212.45,279.92 212.48,271 Z" id="Path" fill="url(#linearGradient-28)"></path>
                    <ellipse id="Oval" fill="url(#linearGradient-29)" transform="translate(151.838386, 270.777828) rotate(-89.840000) translate(-151.838386, -270.777828) " cx="151.838386" cy="270.777828" rx="35.11" ry="60.62"></ellipse>
                    <path d="M137.58,266.78 C137.58,266.78 64.46,242.41 94.58,180.83 C124.7,119.25 78.58,93.59 117.67,74.35 C156.76,55.11 98.35,9.57 133.67,1.23 C168.99,-7.11 149.1,53.18 183.09,65.37 C217.08,77.56 158.72,115.26 186.94,133.61 C215.16,151.96 219,268.07 137.58,266.78 Z" id="Path" fill="url(#linearGradient-30)"></path>
                    <path d="M186,290.36 C182.826908,292.177358 179.476109,293.665113 176,294.8 C171.872576,296.167275 167.627976,297.151433 163.32,297.74 C153.440472,299.116991 143.392604,298.679833 133.67,296.45 L133.67,296.45 C129.750231,295.541774 125.928701,294.252301 122.26,292.6 C120.769849,291.930963 119.314641,291.186671 117.9,290.37 C107.71,284.49 103,276.64 103.78,268.94 C104.42,262.39 109.06,255.94 117.68,250.94 C128.6,244.59 143.51,241.94 157.79,243 C158.29,243 158.79,243.08 159.29,243.13 C168.97,244.01 178.29,246.62 185.75,250.94 C193.45,255.38 198.02,260.94 199.46,266.72 C201.59,275.1 197.11,283.91 186,290.36 Z" id="Path" fill="url(#linearGradient-31)"></path>
                    <path d="M271,207.77 C246.63,206.49 280.62,243.69 253,248.18 C225.38,252.67 204.89,232.78 203.61,254.6 C203.33391,258.935033 201.900848,263.116812 199.46,266.71 C193.1,276.46 181.2,283.18 176.01,294.8 C171.882576,296.167275 167.637976,297.151433 163.33,297.74 C153.450472,299.116991 143.402604,298.679833 133.68,296.45 L133.68,296.45 C139.997456,277.900161 148.084703,260.001057 157.83,243 C158.13,242.47 158.44,241.94 158.75,241.41 C178.11,208.06 208.88,170.69 251.75,164.16 C331.93,152 295.37,209.06 271,207.77 Z" id="Path" fill="url(#linearGradient-32)"></path>
                    <path d="M163.37,297.74 C153.490472,299.116991 143.442604,298.679833 133.72,296.45 L133.72,296.45 C129.800231,295.541774 125.978701,294.252301 122.31,292.6 C117.15,285.44 110.84,277.15 103.83,268.94 C90.59,253.4 74.9,238.18 59.98,231.51 C24.05,215.51 60.62,187.9 25.98,167.37 C-8.66,146.84 -9.94,106.43 31.75,106.43 C73.44,106.43 36.89,134.65 91.26,146.84 C145.63,159.03 88.2,180.84 133.71,209.07 C146.49,217 154.23,228.69 158.71,241.41 C158.91,241.98 159.1,242.55 159.29,243.13 C165.71,262.4 165,283.72 163.37,297.74 Z" id="Path" fill="url(#linearGradient-33)"></path>
                </g>
                <g id="dialog_instagram" transform="translate(201.000000, 137.000000)">
                    <path d="M287.18,155.56 L22.84,2.94 C18.84,0.62 15.18,0.4 12.55,1.94 L5.55,6.01 C8.18,4.48 11.82,4.69 15.85,7.01 L280.19,159.62 C288.19,164.24 294.64,175.42 294.61,184.62 L293.44,597.74 C293.44,602.31 291.82,605.52 289.22,607.03 L296.22,602.96 C298.81,601.45 300.43,598.24 300.44,593.68 L301.610104,180.56 C301.64,171.35 295.18,160.17 287.18,155.56 Z" id="Path" fill="url(#linearGradient-34)"></path>
                    <path d="M280.19,159.62 C288.19,164.24 294.64,175.42 294.610104,184.62 L293.44,597.74 C293.44,606.93 286.92,610.64 278.92,606.02 L14.58,453.38 C6.58,448.77 0.13,437.58 0.159895772,428.38 L1.33,15.26 C1.33,6.07 7.85,2.37 15.85,6.98 L280.19,159.62 Z" id="Path" fill="url(#linearGradient-35)"></path>
                    <polygon id="Path" fill="url(#linearGradient-36)" points="276.01 273.21 276.01 568.4 18.76 419.88 18.76 124.68"></polygon>
                    <path d="M65.53,98.58 C65.53,113.68 54.86,119.76 41.7,112.16 C28.54,104.56 17.87,86.16 17.87,71.06 C17.87,55.96 28.54,49.88 41.7,57.47 C54.86,65.06 65.53,83.48 65.53,98.58 Z M210.45,174.33 L210.45,174.33 C210.45,170.98 208.45,167.1 205.9,165.65 L81.62,93.89 C79.11,92.44 77.08,93.98 77.08,97.33 L77.08,97.33 C77.08,100.68 79.08,104.56 81.62,106.01 L205.9,177.77 C208.41,179.21 210.45,177.68 210.45,174.33 L210.45,174.33 Z M171.64,170.33 L171.64,170.33 C171.611874,168.603464 170.765728,166.992818 169.36,165.99 L79.36,113.99 C78.1,113.27 77.09,114.04 77.09,115.71 L77.09,115.71 C77.1126027,117.435551 77.9555649,119.047205 79.36,120.05 L169.36,172.05 C170.62,172.77 171.64,172 171.64,170.32 L171.64,170.33 Z" id="Shape" fill="url(#linearGradient-37)" fill-rule="nonzero"></path>
                    <path d="M276,483.84 L276,568.4 L18.76,419.88 L18.76,318.93 L70.3,289.54 C85.36,280.95 109.78,295.05 124.84,321.03 L192.37,437.51 L207.78,428.73 C222.84,420.15 247.26,434.25 262.32,460.22 L276,483.84 Z" id="Path" fill="#FFFFFF" opacity="0.3"></path>
                    <ellipse id="Oval" fill="#FFFFFF" opacity="0.3" transform="translate(210.528428, 331.373754) rotate(-30.310000) translate(-210.528428, -331.373754) " cx="210.528428" cy="331.373754" rx="19.24" ry="33.32"></ellipse>
                </g>
                <g id="man1" transform="translate(0.000000, 428.000000)">
                    <path d="M120.59,82.85 C120.59,82.85 89.26,138.85 93.93,156.18 C98.6,173.51 135.17,205.52 135.17,205.52 L120.59,82.85 Z" id="Path" fill="url(#linearGradient-38)"></path>
                    <ellipse id="Oval" fill="url(#linearGradient-39)" cx="158.73" cy="573.56" rx="158.73" ry="91.64"></ellipse>
                    <path d="M86.92,529.93 C83.4021999,534.16379 80.2034172,538.652782 77.35,543.36 C72.85,550.86 75.52,559.86 82.13,563.46 C88.74,567.06 95.05,568.8 102.85,565.23 C110.65,561.66 117.25,550.76 128.65,548.11 C140.05,545.46 153,531.69 139.65,522.36 C130.6,516.06 86.92,529.93 86.92,529.93 Z" id="Path" fill="url(#linearGradient-40)"></path>
                    <path d="M186.63,551.26 L181.81,572.2 C181.81,572.2 162.49,573.27 157.81,564.11 L164,535.2 L186.63,392 L166.31,317.78 L106.93,544.32 C106.93,544.32 99.04,548.89 91.65,546.23 C90.08,545.67 90.88,541.23 89.31,540.11 C86.09,537.72 84.65,540.79 83.6,538.89 L150.91,299.4 L194.91,309.92 L213.45,408.65 L186.63,551.26 Z" id="Path" fill="#EFAD81"></path>
                    <path d="M149.5,84.5 L152.5,66.08 C152.5,66.08 148.17,19.69 160.75,15.14 C173.33,10.59 200.95,14.48 201.18,37.03 C201.42,59.92 200.87,79.37 191.01,78.96 C181.15,78.55 179.35,76.9 179.35,76.9 L179.63,94.73 L149.5,84.5 Z" id="Path" fill="#FFBBB6"></path>
                    <path d="M111.44,255.92 L115.62,381.28 L83.62,520.33 C83.62,520.33 90.91,532.5 123.41,529.33 C123.41,529.33 159.41,404.74 162.86,399.45 C166.31,394.16 172.58,351.79 172.58,351.79 C172.58,351.79 178,417.15 176.33,424 C174.66,430.85 157.78,549 157.78,549 C157.78,549 164.61,565.22 195.19,560.5 C195.19,560.5 228.12,424.5 228.12,411.72 L228.12,275.37 L111.44,255.92 Z" id="Path" fill="url(#linearGradient-41)"></path>
                    <path d="M184.72,565 C184.72,565 169,565.8 166,563.77 C163,561.74 162.24,557.28 159.76,557.08 C157.28,556.88 146.87,573.08 146.759348,584.66 C146.67,592.07 155.9,599.36 176.37,596.93 C199.81,594.14 197.61,599.1 218.09,594.85 C238.57,590.6 231.59,578.17 219.63,576.96 C207.67,575.75 196.16,573.71 191.84,570.47 C187.52,567.23 184.72,565 184.72,565 Z" id="Path" fill="url(#linearGradient-42)"></path>
                    <path d="M333.82,101.4 C333.82,101.4 335.71,97.69 333.64,96.62 C331.57,95.55 329.07,98.14 329.07,98.14 C329.5,94.33 328.47,91.49 324.32,95.4 C323.39,96.27 321.88,97.77 320.32,99.4 C318.907723,99.2612982 317.486883,99.2312098 316.07,99.31 C313.64,99.51 312.53,105.86 312.18,108.38 L306.27,117.08 L313.07,133.39 C313.07,133.39 322.31,128.94 325.76,126.23 C329.21,123.52 338.6,111.31 337.93,108.17 C337.26,105.03 335.15,107.26 335.15,107.26 C335.15,107.26 337.54,103.95 336.52,101.92 C336.338231,101.380654 335.88043,100.98075 335.321549,100.873113 C334.762667,100.765477 334.189085,100.966744 333.82,101.4 Z" id="Path" fill="#FFBBB6"></path>
                    <path d="M251.47,191.85 C263.89,192.28 327.83,127.09 327.83,127.09 C323,109.85 307,113.85 307,113.85 L255.72,152.35 C255.72,152.35 220.47,114.71 213.4,106.84 C206.33,98.97 180.81,85.79 180.81,85.79 C180.81,85.79 158.69,92.89 148.98,74.79 C148.98,74.79 118.87,77.31 115.74,78.53 C112.61,79.75 102.63,102.53 115.89,150.9 C133.99,216.9 107.03,257.79 107.03,257.79 C107.03,257.79 150.68,307.2 233.25,282.26 L201.25,169.57 C201.25,169.57 239.05,191.42 251.47,191.85 Z" id="Path" fill="url(#linearGradient-43)"></path>
                    <path d="M191.46,37.53 C191.46,37.53 209.33,40.21 208.95,28.15 C208.57,16.09 200.77,21.97 198.68,11.75 C196.17,-0.54 178.11,-4.72 163.62,9.41 C152.79,19.96 146.41,25.64 128.35,22.26 C84.78,14.08 36.5,54.49 76,104.38 C115.5,154.27 169.53,122.83 169.45,94.08 C169.37,65.33 183.11,57.66 192.56,56.26 C202.01,54.86 191.46,37.53 191.46,37.53 Z" id="Path" fill="url(#linearGradient-44)"></path>
                </g>
                <g id="Group" transform="translate(988.000000, 122.000000)">
                    <path d="M243,131.63 L18,1.72 C16,0.57 14.2,0.46 12.9,1.22 L2.74,7.12 C4.05,6.36 5.86,6.47 7.85,7.62 L232.85,137.53 C237.086661,140.282405 239.751578,144.894906 240.02,149.94 L239.58,303.78 C239.58,306.05 238.77,307.64 237.48,308.39 L247.64,302.49 C248.93,301.74 249.73,300.15 249.73,297.88 L250.17,144.04 C249.898375,138.995857 247.234236,134.384705 243,131.63 Z" id="Path" fill="url(#linearGradient-45)"></path>
                    <path d="M240,149.93 L239.56,303.78 C239.56,308.34 236.32,310.18 232.35,307.89 L137,252.84 L75.26,217.19 L45.67,234.05 C44.6922515,234.502026 43.5472116,234.395155 42.67,233.77 C40.105341,232.118994 38.490552,229.335902 38.33,226.29 L38.42,195.91 L36.58,194.85 L7.35,178 C3.11747975,175.249707 0.456086032,170.640589 0.19,165.6 L0.63,11.75 C0.63,7.19 3.86,5.35 7.83,7.64 L62.54,39.23 L132.36,79.54 L232.84,137.54 C237.068551,140.289401 239.729182,144.893483 240,149.93 Z" id="Path" fill="url(#linearGradient-46)"></path>
                </g>
                <g id="smile3" transform="translate(567.000000, 211.000000)">
                    <path d="M72,3.13 C64.39,-1.29 53.86,-0.66 42.23,6.05 C19.13,19.39 0.46,51.73 0.529803802,78.28 C0.529803802,91.47 5.23,100.75 12.74,105.11 L37,119.22 C29.49,114.85 24.83,105.58 24.79,92.39 C24.72,65.83 43.39,33.49 66.49,20.15 C78.12,13.44 88.65,12.82 96.26,17.24 L72,3.13 Z" id="Path" fill="url(#linearGradient-47)"></path>
                    <path d="M66.45,20.15 C89.56,6.81 108.35,17.52 108.450399,44.08 C108.55,70.64 89.86,102.96 66.75,116.31 C43.64,129.66 24.86,118.93 24.7495174,92.39 C24.64,65.85 43.35,33.49 66.45,20.15 Z" id="Path" fill="url(#linearGradient-48)"></path>
                    <ellipse id="Oval" fill="#FFFFFF" transform="translate(54.998748, 63.025065) rotate(-59.690000) translate(-54.998748, -63.025065) " cx="54.9987485" cy="63.0250651" rx="8.05" ry="4.65"></ellipse>
                    <ellipse id="Oval" fill="#FFFFFF" transform="translate(83.431000, 45.322600) rotate(-59.826480) translate(-83.431000, -45.322600) " cx="83.431" cy="45.3226" rx="8.00803059" ry="4.6257568"></ellipse>
                    <path d="M71.17,99.22 C83.77,91.94 93.99,74.32 93.99,59.86 L48.35,86.21 C48.35,100.67 58.57,106.5 71.17,99.22 Z" id="Path" fill="#FFFFFF"></path>
                </g>
                <g id="smile2" transform="translate(590.000000, 0.000000)">
                    <path d="M72.42,3.82 C64.81,-0.6 54.28,4.4408921e-16 42.65,6.74 C19.54,20.08 0.87,52.42 0.999325203,79 C0.999325203,92.19 5.69,101.47 13.2,105.83 L37.47,119.94 C29.96,115.58 25.31,106.3 25.27,93.11 C25.19,66.55 43.87,34.21 66.97,20.87 C78.6,14.16 89.13,13.54 96.74,17.96 L72.42,3.82 Z" id="Path" fill="url(#linearGradient-49)"></path>
                    <path d="M66.92,20.84 C90.03,7.5 108.82,18.22 108.920399,44.77 C109.02,71.32 90.3,103.65 67.19,117 C44.08,130.35 25.29,119.62 25.1896014,93.08 C25.09,66.54 43.82,34.18 66.92,20.84 Z" id="Path" fill="url(#linearGradient-50)"></path>
                    <ellipse id="Oval" fill="#FFFFFF" transform="translate(55.461352, 63.714344) rotate(-59.690000) translate(-55.461352, -63.714344) " cx="55.4613521" cy="63.7143438" rx="8.05" ry="4.65"></ellipse>
                    <ellipse id="Oval" fill="#FFFFFF" transform="translate(87.796065, 45.037589) rotate(-59.690000) translate(-87.796065, -45.037589) " cx="87.7960648" cy="45.0375891" rx="8.05" ry="4.65"></ellipse>
                    <path d="M71.64,99.91 C84.24,92.63 94.46,75.01 94.46,60.55 L48.82,86.9 C48.82,101.36 59,107.19 71.64,99.91 Z" id="Path" fill="#FFFFFF"></path>
                </g>
                <g id="smile" transform="translate(757.000000, 166.000000)">
                    <path d="M45.77,2.58 C40.91,-0.24 34.19,0.16 26.77,4.44 C12.02,12.95 0.11,33.59 0.159843144,50.54 C0.159843144,58.96 3.16,64.88 7.94,67.66 L23.43,76.66 C18.64,73.87 15.67,67.95 15.65,59.53 C15.65,42.58 27.51,21.94 42.26,13.43 C49.68,9.15 56.4,8.75 61.26,11.57 L45.77,2.58 Z" id="Path" fill="url(#linearGradient-51)"></path>
                    <path d="M42.26,13.44 C57,4.93 69,11.76 69,28.71 C69,45.66 57.14,66.29 42.39,74.81 C27.64,83.33 15.65,76.48 15.6098998,59.54 C15.57,42.6 27.51,22 42.26,13.44 Z" id="Path" fill="url(#linearGradient-52)"></path>
                    <ellipse id="Oval" fill="#FFFFFF" transform="translate(34.938665, 40.796436) rotate(-59.690000) translate(-34.938665, -40.796436) " cx="34.9386648" cy="40.7964362" rx="5.14" ry="2.97"></ellipse>
                    <ellipse id="Oval" fill="#FFFFFF" transform="translate(55.583233, 28.877051) rotate(-59.690000) translate(-55.583233, -28.877051) " cx="55.583233" cy="28.8770512" rx="5.14" ry="2.97"></ellipse>
                    <path d="M45.27,63.9 C53.27,59.26 59.83,48.01 59.83,38.78 L30.71,55.6 C30.71,64.83 37.23,68.54 45.27,63.9 Z" id="Path" fill="#FFFFFF"></path>
                </g>
            </g>
        </g>
    </g>
</svg>