<?xml version="1.0" encoding="UTF-8"?>
<svg width="120px" height="120px" viewBox="0 0 120 120" version="1.1" xmlns="http://www.w3.org/2000/svg" xmlns:xlink="http://www.w3.org/1999/xlink">
    <!-- Generator: Sketch 60 (88103) - https://sketch.com -->
    <title>编组</title>
    <desc>Created with Sketch.</desc>
    <g id="页面-1" stroke="none" stroke-width="1" fill="none" fill-rule="evenodd">
        <g id="编组" fill-rule="nonzero">
            <g id="科技圈" fill="#7D7878">
                <path d="M41.8909472,17.5636142 C41.8909472,17.5636142 42.3273539,17.345528 43.2000503,17.0182229 C44.0727466,16.6909179 45.3818497,16.2545111 47.0182578,15.7091198 C50.4000586,14.8364235 55.3091659,13.7455238 61.3091729,13.96361 C67.3091799,14.0727117 74.1818832,15.6000182 80.945602,18.8727173 C87.6001019,22.1455336 93.7092106,27.7091338 98.2910128,34.1455475 C98.9456229,34.9091422 99.2728108,35.8909402 99.8183193,36.6545348 C100.254609,37.5273484 100.909219,38.290943 101.236524,39.272741 C101.672814,40.1455545 102.10922,41.0182509 102.436525,42.0000489 L102.763713,42.6545418 L102.981917,43.309152 L103.418323,44.7273567 C104.836528,48.4363454 105.491021,52.254553 105.818326,55.9636589 C106.363718,63.3818706 105.163716,70.4727773 103.091018,76.0364947 C101.018321,81.600095 98.1820283,85.8545921 96.1092134,88.5819 C95.6728066,89.3456118 95.0181965,89.891003 94.5819069,90.3274098 C94.1456174,90.8728011 93.7092106,91.3092078 93.3819055,91.6363957 C92.7274126,92.2910058 92.4001075,92.7274126 92.4001075,92.7274126 L91.3090906,91.6363957 C91.3090906,91.6363957 91.6365129,91.3092078 92.1819041,90.6545977 C92.5092092,90.3274098 92.8365143,89.891003 93.272921,89.4545963 C93.7092106,88.909205 94.2546019,88.4727983 94.6910086,87.7092036 C96.7637063,85.0909975 99.4910142,81.0545865 101.45461,75.600088 C103.418323,70.2545739 104.618325,63.3818706 104.072816,56.1818623 C103.636527,52.5818581 103.091018,48.8728694 101.672814,45.3818497 L101.236524,44.0728638 L101.45461,43.2000503 L101.127422,42.5455573 C100.691016,41.6727438 100.363711,40.8000475 99.927421,39.9273511 C99.6001159,39.0545376 98.9456229,38.290943 98.5092162,37.4182467 C97.9637077,36.6545348 97.6365199,35.7818385 96.9819097,34.9091422 C92.6183109,28.5818301 86.6183039,23.345535 80.1818902,20.0727187 C73.7454764,16.7999024 66.9818748,15.3818148 61.2000712,15.2727131 C55.4182676,15.0545097 50.618262,16.1455266 47.4545474,17.0182229 C45.8182564,17.5636142 44.618255,18.0000209 43.7455587,18.3272088 C42.8727452,18.5455294 42.4364556,18.8727173 42.4364556,18.8727173 L41.8909472,17.5637314 L41.8909472,17.5636142 Z M27.6000321,27.1636254 C27.6000321,27.1636254 29.2364403,25.7455378 30.8727312,24.2182313 L34.3637509,21.6000251 L35.2364473,22.8000265 C35.2364473,22.8000265 33.4909374,24.1090124 31.8545293,25.3090138 C30.32734,26.7273358 28.6909318,28.1455406 28.6909318,28.1455406 L27.6000321,27.1636254 L27.6000321,27.1636254 Z M18.327326,40.2546562 C18.327326,40.2546562 18.5455294,39.7091478 18.8727173,39.0546548 C19.2000223,38.290943 19.8545153,37.4182467 20.4000237,36.4364486 C20.9455322,35.4545334 21.4910406,34.5818371 22.0364319,33.9273442 C22.4727215,33.272734 22.8000265,32.8363273 22.8000265,32.8363273 L24.0000279,33.7091408 C24.0000279,33.7091408 23.6727229,34.1455475 23.2364333,34.8000405 C22.6909248,35.4545334 22.2545181,36.327347 21.7091268,37.3090278 C21.1636184,38.1818413 20.6181099,39.0545376 20.290922,39.8182495 C19.963617,40.5818441 19.7455308,41.0182509 19.7455308,41.0182509 L18.327326,40.254539 L18.327326,40.2546562 Z M14.0727117,55.7455727 L14.0727117,55.4182676 C14.0727117,55.2000642 14.1818134,54.8727592 14.1818134,54.4364696 C14.2909151,53.6727578 14.4000168,52.5818581 14.6182201,51.4909584 C15.1636114,49.3091589 15.6000182,47.2364612 15.6000182,47.2364612 L17.0182229,47.6727508 C17.0182229,47.6727508 16.4727145,49.7455657 16.0364249,51.8182634 C15.9273232,52.9091631 15.7091198,53.8909611 15.6000182,54.6545558 C15.4910337,55.0909625 15.4910337,55.4182676 15.4910337,55.636471 L15.4910337,55.9636589 L14.0727117,55.7455727 L14.0727117,55.7455727 Z M15.3818148,71.6727787 C15.3818148,71.6727787 15.2728303,71.1273875 15.0545097,70.3637928 L14.7273218,69.0545725 C14.6182201,68.5091813 14.6182201,67.9636728 14.5091184,67.4182816 C14.4000168,66.3272647 14.1818134,65.2364822 14.0727117,64.4727703 C14.0727117,63.600074 13.9637272,63.0545656 13.9637272,63.0545656 L15.4909165,62.9455811 C15.4909165,62.9455811 15.4909165,63.4909723 15.6000182,64.254567 C15.7091198,65.0181616 15.8182215,66.1091785 16.0364249,67.0909765 C16.1454094,67.636485 16.1454094,68.1819934 16.2545111,68.618283 C16.3636128,69.0545725 16.4727145,69.600081 16.5818162,69.9272689 C16.8000195,70.6909807 16.9091212,71.2364891 16.9091212,71.2364891 L15.3818148,71.6727787 Z M22.1455336,86.2909988 C22.1455336,86.2909988 22.0364319,86.1820143 21.9273302,85.9636938 C21.8182285,85.7456076 21.6000251,85.5274042 21.3818218,85.2000991 C20.9455322,84.5456062 20.4000237,83.563691 19.8545153,82.581893 C19.2000223,81.7091966 18.7636156,80.6182969 18.4364277,79.9636868 C18.1091226,79.2000922 17.8909193,78.7636854 17.8909193,78.7636854 L19.309124,78.1091925 C19.309124,78.1091925 19.5273274,78.5455992 19.8545153,79.3091938 C20.1818204,80.0727885 20.6182271,81.0545865 21.1636184,81.9274 C21.7091268,82.8000963 22.2546353,83.7818944 22.6909248,84.4363873 C22.9091282,84.7636924 23.1273316,84.9818958 23.2364333,85.2000991 C23.3454178,85.4183025 23.4545195,85.5274042 23.4545195,85.5274042 L22.1455336,86.2909988 Z M33.4909374,97.6365199 C33.4909374,97.6365199 33.0545307,97.3092148 32.4000377,96.8728011 C31.7455448,96.4365185 30.8727312,95.7819083 30.0000349,95.0183137 C29.2364403,94.2546019 28.3636268,93.6001089 27.7090166,92.945616 C27.3818287,92.7274126 27.1636254,92.4001075 27.0545237,92.2910058 C26.9455392,92.0728025 26.8364375,91.9637008 26.8364375,91.9637008 L27.9273372,90.8728011 L28.1455406,91.0910044 C28.2545251,91.3092078 28.4727284,91.5274112 28.8000335,91.7456146 C29.345542,92.2910058 30.2182383,92.945616 30.9818329,93.7092106 C31.7454276,94.4728052 32.6182411,95.0181965 33.2728512,95.563705 C33.9273442,96.0001117 34.3636337,96.3274168 34.3636337,96.3274168 L33.4909374,97.6364027 L33.4909374,97.6365199 Z M79.4182955,101.781915 C79.4182955,101.781915 78.8727871,102.000119 78.2182941,102.327424 C77.4545823,102.763713 76.4727843,102.981917 75.3818846,103.418323 C74.8364933,103.636527 74.4000866,103.745629 73.8545781,103.963715 C73.4182886,104.181918 72.8727801,104.29102 72.5455922,104.400121 C71.7818804,104.618325 71.2364891,104.727427 71.2364891,104.727427 L70.9091841,103.309222 C70.9091841,103.309222 71.4545753,103.20012 72.21817,102.981917 C72.6545767,102.872932 73.0909835,102.763713 73.5273902,102.545627 C73.9636798,102.327424 74.5091883,102.218322 74.945595,102.000119 C75.927393,101.672814 76.9091841,101.345626 77.6727857,100.909102 C78.4364975,100.581914 78.8727871,100.363711 78.8727871,100.363711 L79.4182955,101.781915 L79.4182955,101.781915 Z M92.6183109,92.6183109 C92.6183109,92.6183109 90.9819027,94.0365157 89.3456118,95.563705 C88.4727983,96.2183151 87.6001019,96.872808 86.945609,97.4183165 C86.2909988,97.8546061 85.8545921,98.1819111 85.8545921,98.1819111 L85.0909975,96.9819097 C85.0909975,96.9819097 85.5274042,96.6546047 86.1820143,96.2183151 C86.8365073,95.7819083 87.7092036,95.1272982 88.4727983,94.4728052 C90.0001047,93.0546005 91.6365129,91.6365129 91.6365129,91.6365129 L92.6183109,92.6183109 L92.6183109,92.6183109 Z M48.0000559,104.509106 C48.0000559,104.509106 47.8910714,104.509106 47.6727508,104.400004 C47.4545474,104.29102 47.1273595,104.29102 46.6909528,104.181801 C45.9273511,103.963598 44.8364584,103.527308 43.8545432,103.200003 C42.7636435,102.872698 41.7818455,102.436408 41.1273525,102.000002 C40.3636407,101.672696 39.9273511,101.454493 39.9273511,101.454493 L40.5818441,100.145507 C40.5818441,100.145507 41.0182509,100.363593 41.7818455,100.690898 C42.5455573,101.018203 43.4182536,101.563595 44.5091534,101.781915 C45.4909514,102.109103 46.4727494,102.436408 47.2364612,102.763596 C47.5636491,102.872698 47.8909542,102.9818 48.2182592,102.9818 C48.4364626,102.9818 48.5455643,103.090901 48.5455643,103.090901 L48.0000559,104.509106 L48.0000559,104.509106 Z M63.9273791,105.927311 C63.9273791,105.927311 63.3818706,105.927311 62.5091743,106.036295 C61.636478,106.036295 60.5455783,106.145514 59.4545614,106.145514 C58.3636617,106.145514 57.272762,106.036412 56.4000656,106.036412 L55.4182676,106.036412 C55.2000642,106.036412 55.0909625,105.927311 55.0909625,105.927311 L55.2000642,104.400004 C55.2000642,104.400004 55.3090487,104.400004 55.5273693,104.508989 L56.5091673,104.508989 C57.272762,104.508989 58.3636617,104.618208 59.4545614,104.618208 C60.5455783,104.618208 61.5273763,104.509106 62.4000726,104.509106 C63.1636672,104.509106 63.7090585,104.400004 63.7090585,104.400004 L63.9273791,105.927311 L63.9273791,105.927311 Z M102.436408,31.3090208 C102.436408,31.3090208 102.654612,31.5272242 102.872815,31.9635138 C103.091018,32.3999205 103.527425,33.0545307 103.963832,33.927227 C104.181918,34.3635165 104.509223,34.7999233 104.727427,35.3454318 C105.054614,35.890823 105.38192,36.4363315 105.600123,36.9817227 C106.145631,38.1817241 106.800124,39.5999289 107.454617,41.1272354 C107.781922,41.89083 108.000126,42.7635263 108.327431,43.5272381 C108.545634,44.3999345 108.981924,45.2726308 109.200127,46.1454443 C109.41833,47.0181406 109.636534,47.9999387 109.85462,48.9817367 C109.963722,49.4181434 110.072823,49.9635347 110.181925,50.3999415 C110.291027,50.9454499 110.291027,51.3817395 110.400128,51.9272479 C110.509113,52.9090459 110.727434,53.9999456 110.836535,55.0908454 C110.836535,56.1818623 110.94552,57.2726448 110.94552,58.3635445 L111.272942,60.0000698 L111.163957,61.636478 C111.163957,62.7273777 111.054739,63.8182774 111.054739,64.9091771 C110.945754,66.0000768 110.727551,67.0909765 110.618449,68.1818762 L110.400246,69.8182844 L109.963839,71.4545753 C109.745753,72.5455922 109.418448,73.5273902 109.200244,74.61829 L108.218446,77.563684 C107.672938,79.5273972 106.69114,81.2727899 105.927428,83.0182997 C105.60024,83.8909961 105.054732,84.6545907 104.618442,85.4183025 C104.182035,86.1818972 103.745746,86.945609 103.309339,87.6001019 C101.454727,90.3274098 99.8183193,92.6183109 98.4002317,93.927414 C97.0912458,95.3456188 96.327534,96.2183151 96.327534,96.2183151 L94.2547191,94.1456174 C94.2547191,94.1456174 94.9093292,93.3819055 96.2184323,92.0728025 C97.5274182,90.7638166 99.0547246,88.6910016 100.800234,86.0727955 C101.236641,85.4183025 101.563829,84.6545907 102.000236,84.0000977 C102.436643,83.2365031 102.872932,82.581893 103.200237,81.7090795 C103.963832,80.0727885 104.836645,78.4364975 105.382037,76.581886 C105.709342,75.7091897 106.036647,74.7273916 106.363835,73.7455936 C106.582038,72.7636784 106.800241,71.7818804 107.127547,70.8000824 L107.454734,69.2727759 L107.672938,67.7455866 C107.782039,66.7636714 108.000243,65.6727717 108.109345,64.6909737 C108.109345,63.600074 108.218329,62.618276 108.218329,61.5273763 L108.327548,60.0000698 L108.218446,58.4727634 C108.218446,57.4909653 108.109345,56.4000656 108.109345,55.4182676 C108.000243,54.4364696 107.782039,53.4545544 107.672938,52.4727564 C107.563953,52.0364668 107.563953,51.4909584 107.454734,51.0545516 C107.345516,50.6181448 107.236648,50.0727536 107.127547,49.636464 C106.909343,48.7636505 106.69114,47.7818525 106.472936,47.0182578 C106.254733,46.1455615 105.927545,45.3818497 105.709342,44.5091534 C105.382037,43.7455587 105.163833,42.9818469 104.945747,42.2181351 C104.400239,40.8000475 103.745746,39.4909444 103.200237,38.4000447 C102.982034,37.8545362 102.654729,37.3090208 102.327541,36.8727382 C102.000236,36.4364486 101.782032,36.0000419 101.563829,35.5637523 C101.12754,34.8000405 100.691133,34.1455475 100.472929,33.7091408 C100.254719,33.272734 100.03664,33.0545307 100.03664,33.0545307 L102.436643,31.3090208 L102.436408,31.3090208 Z M14.5091184,36.4363315 L14.8364235,35.7817213 C15.0545097,35.3454318 15.4909165,34.6908216 15.9273232,33.8181253 C16.8000195,32.0726154 18.4363105,29.890816 20.5091184,27.2726099 C21.0545167,26.6181169 21.6000251,26.0726085 22.2545181,25.3090138 C22.5818232,24.9817088 22.9091282,24.6544037 23.1273316,24.3272158 L24.1091296,23.3454178 C24.7636226,22.6908077 25.5273344,22.0363147 26.290929,21.3817046 C26.6182341,21.0543995 27.0545237,20.7272116 27.3819459,20.3999066 C27.8182355,20.0726015 28.1455406,19.7454136 28.5819473,19.5272102 C29.4545265,18.8726001 30.2182383,18.3272088 31.0909346,17.6725987 C31.9636309,17.0181057 32.9455461,16.581699 33.8182425,15.927206 C34.254532,15.599901 34.8000405,15.3816976 35.2364473,15.0543925 L35.8909402,14.6181029 L36.6545348,14.2907979 C37.63645,13.8543911 38.6182481,13.3089999 39.7091478,12.8725931 C48.0000559,9.27258891 57.0545586,8.39989259 63.7091757,8.94540103 C64.1455825,8.94540103 64.581872,8.94540103 64.9091771,9.05438554 C65.3455839,9.16348723 65.6727717,9.16348723 66.1091785,9.16348723 C66.8727731,9.27258891 67.5273833,9.3816906 68.1818762,9.49079229 C68.8364864,9.59989398 69.4909793,9.70899567 70.0364877,9.81809736 C70.581879,9.92708186 71.1273875,10.0363007 71.563677,10.1454024 C73.4182886,10.581692 74.5091883,10.9089971 74.5091883,10.9089971 L73.6364919,13.7454066 C73.6364919,13.7454066 72.6545767,13.5272032 70.9091841,13.0907965 C70.4727773,12.981812 69.9273861,12.8725931 69.4909793,12.7634914 C68.945588,12.6545069 68.4000796,12.5454052 67.7455866,12.5454052 L65.7818734,12.2181002 C65.4545684,12.2181002 65.0182788,12.1089985 64.6909737,12.1089985 L63.600074,12.1089985 C57.3818636,11.6725917 48.8727522,12.4363035 41.2364542,15.8179872 C40.254539,16.2543939 39.3818427,16.6908007 38.4000447,17.1272074 L37.7455517,17.4543953 L37.0909416,17.8908021 L35.7819557,18.6543967 C34.9091422,19.1999052 34.0364459,19.6363119 33.1636323,20.2908049 C32.4000377,20.8363133 31.5273414,21.4908063 30.7636295,22.0363147 C30.32734,22.3635026 30.0000349,22.581706 29.5636282,22.909011 C29.2364403,23.2363161 28.9091352,23.563504 28.4727284,23.8908091 C27.8182355,24.5454192 27.0545237,25.0908104 26.4000307,25.7454206 L25.4182327,26.7272186 C25.0909276,27.0544065 24.8727243,27.3817115 24.5455364,27.7090166 C24.0000279,28.3635096 23.4545195,28.909018 22.9091282,29.563511 C20.9455322,32.0726154 19.4181085,34.1454304 18.5455294,35.6726196 C18.1091226,36.4363315 17.6727159,37.0908244 17.4545125,37.5272312 L17.1273246,38.1817241 L14.5091184,36.4363315 L14.5091184,36.4363315 Z M96.2183151,96.2183151 C96.2183151,96.2183151 95.6728066,96.7637063 94.6910086,97.6365199 C94.1456174,98.0728094 93.6001089,98.6183179 92.8365143,99.2728108 C92.5092092,99.6001159 92.0728025,99.927421 91.6365129,100.254609 L90.3274098,101.236524 C88.4727983,102.654612 86.1818972,104.072816 83.6727927,105.491021 C82.3638068,106.145631 81.0545865,106.691023 79.6364989,107.345633 C78.2182941,107.891024 76.8000894,108.327431 75.2727829,108.872822 C69.3818776,110.727434 63.1637844,111.272825 58.4727634,111.16384 C57.272762,111.054621 56.2909639,111.054621 55.3091659,111.054621 C54.3273679,110.945637 53.5636561,110.836535 52.9091631,110.727434 C51.60006,110.50923 50.8364654,110.400128 50.8364654,110.400128 L51.3818567,107.454617 C51.3818567,107.454617 52.1455685,107.563719 53.3455699,107.781922 C54.0000628,107.891024 54.7636575,108.000126 55.636471,108.109227 C56.5091673,108.109227 57.4909653,108.218212 58.581865,108.218212 C62.9455811,108.327431 68.8364864,107.781922 74.4000866,106.03653 C75.8182913,105.491021 77.1273944,105.054614 78.4364975,104.618325 C79.7454834,103.963715 81.0545865,103.418323 82.2545879,102.872815 C84.6545907,101.45461 86.8365073,100.254609 88.5819,98.8365213 C89.0183067,98.5092162 89.4545963,98.1819111 89.891003,97.9637077 C90.3274098,97.6365199 90.6545977,97.4183165 90.9820199,97.0910114 C91.6365129,96.5456202 92.1820213,96.0001117 92.7274126,95.563705 C93.7092106,94.6910086 94.2546019,94.2547191 94.2546019,94.2547191 L96.2183151,96.2183151 Z M100.145624,100.145624 C100.145624,100.145624 99.4910142,100.691016 98.4001145,101.672814 C97.8546061,102.218322 97.2001131,102.763831 96.4365185,103.527425 C96.1092134,103.854613 95.6728066,104.181918 95.1274154,104.618325 C94.6910086,104.94563 94.1456174,105.38192 93.6001089,105.709225 C91.6365129,107.345633 89.0183067,108.76372 86.1818972,110.400128 C84.7636924,111.054621 83.2365031,111.818333 81.7091966,112.472826 C80.1818902,113.127436 78.5455992,113.672828 76.9091911,114.218336 C70.3636756,116.291034 63.4909723,116.945644 58.3636617,116.727323 C57.0546758,116.618339 55.9636589,116.618339 54.8727592,116.509237 C53.8909611,116.400135 52.9091631,116.291034 52.1455685,116.181932 L49.8545502,115.854627 L50.4000586,112.909233 C50.4000586,112.909233 51.1636533,113.018217 52.5818581,113.236538 C53.2364682,113.345523 54.1091645,113.454624 55.0909625,113.563726 C56.0727606,113.563726 57.1636603,113.672828 58.3636617,113.672828 C63.1636672,113.781929 69.7091827,113.236538 75.927393,111.272825 C77.4545823,110.727434 78.9818888,110.291027 80.5091952,109.636534 L84.7636924,107.672821 C87.3818986,106.145631 89.891003,104.727427 91.7456146,103.20012 C92.1819041,102.872815 92.7274126,102.545627 93.1637022,102.218322 C93.6001089,101.891017 94.0365157,101.563712 94.3637036,101.236524 C95.1274154,100.581914 95.7819083,100.036523 96.2183151,99.4910142 C97.3092148,98.5092162 97.8546061,97.9637077 97.8546061,97.9637077 L100.145624,100.145624 L100.145624,100.145624 Z M37.7455517,7.85450133 C37.7455517,7.85450133 37.8545362,7.85450133 38.0727396,7.74551683 C38.290943,7.63641514 38.6182481,7.52731345 38.9455531,7.41821176 C39.7091478,7.09090669 40.9091492,6.76360162 42.4364556,6.21821036 C42.7636435,6.10910867 43.2000503,6.00000698 43.636457,5.7818036 L44.9454429,5.45449853 C45.9273581,5.23641234 46.9091561,5.01820896 48.0000559,4.6909039 C49.0910727,4.36359883 50.2910741,4.25449714 51.4910755,4.03641095 C52.1455685,3.92730926 52.8000614,3.81820757 53.3455699,3.70910588 C54.0000628,3.60000419 54.6545558,3.4909025 55.3091659,3.4909025 C60.7636645,2.94551124 67.3091799,3.381918 73.9636798,5.12731065 C80.6182969,6.87270331 87.3818986,9.92731624 93.2728038,14.2909151 C99.1638263,18.6545139 104.181918,24.1091296 107.891024,29.8909332 C108.327431,30.6545279 108.76372,31.4182397 109.200127,32.0727326 C109.636534,32.8364445 110.072823,33.4909374 110.400128,34.254532 C111.054621,35.7818385 111.818333,37.2000433 112.472826,38.6182481 C113.018335,40.1455545 113.454624,41.5636421 114.000133,42.9818469 C114.218336,43.636457 114.436539,44.4000517 114.545641,45.0545446 C114.763727,45.7091548 114.872829,46.4727494 115.091032,47.1273595 C115.200134,47.7818525 115.418337,48.4363454 115.527439,49.0909556 C115.636424,49.7455657 115.745642,50.4000586 115.854627,50.9455671 C116.07283,52.1455685 116.181932,53.3455699 116.400135,54.4364696 C116.50912,56.618269 116.618339,58.581865 116.618339,60.2182732 C116.509237,63.3818706 116.400135,65.2364822 116.400135,65.2364822 L112.472826,64.9091771 C112.472826,64.9091771 112.581928,63.1636672 112.69103,60.218156 C112.69103,58.6909667 112.582045,56.9455741 112.472826,54.8727592 C112.363842,53.8909611 112.145638,52.8000614 112.036537,51.60006 C111.927435,51.0545516 111.818333,50.4000586 111.818333,49.8545502 C111.709232,49.3091589 111.491028,48.6545488 111.381926,48.0000559 C111.272942,47.3455629 111.054621,46.69107 110.945637,46.1455615 C110.836535,45.4909514 110.618332,44.8364584 110.400128,44.1818483 C109.963722,42.8728624 109.527432,41.5636421 108.981924,40.1455545 C108.327431,38.8364514 107.781922,37.4182467 107.127429,36.0000419 C106.800124,35.2364473 106.363718,34.691056 106.036412,33.9273442 C105.600123,33.272734 105.272818,32.6182411 104.836411,31.8545293 C101.45461,26.4000307 96.7637063,21.2727201 91.3092078,17.345528 C85.8545921,13.309117 79.5273972,10.3636058 73.3091869,8.83641653 C67.0909765,7.30899288 61.0909695,6.87270331 55.9636589,7.30899288 C55.3091659,7.30899288 54.654673,7.41797738 54.1091645,7.52719626 C53.4545544,7.63618076 52.9091631,7.74539964 52.3636547,7.74539964 C51.1636533,7.96348583 50.0727536,8.07258752 49.0909556,8.2907909 C48.1091575,8.50899428 47.1273595,8.72719766 46.254546,8.94540103 C45.8182564,9.05438554 45.3818497,9.16348723 45.0545446,9.27258891 C44.618255,9.3816906 44.29095,9.49079229 43.9636449,9.70899567 C42.5455573,10.2543869 41.4546576,10.581692 40.6909458,10.7998954 C40.254539,10.9088799 40.0364528,11.1272004 39.8182495,11.1272004 C39.6000461,11.2361849 39.4909444,11.2361849 39.4909444,11.2361849 L37.7455517,7.85438414 L37.7455517,7.85450133 Z M3.60000419,54.7636575 L3.60000419,54.3273679 C3.60000419,54.1091645 3.70898869,53.6727578 3.70898869,53.3455699 C3.92730926,52.4727564 4.03641095,51.272755 4.25449714,50.1818553 C4.36359883,49.0909556 4.6909039,47.8909542 4.90910727,47.1273595 C5.12731065,46.254546 5.23641234,45.7091548 5.23641234,45.7091548 L13.4182187,47.7818525 C13.4182187,47.7818525 13.309117,48.2182592 13.0909137,48.9818539 C12.9819292,49.7455657 12.6545069,50.618262 12.5455224,51.60006 C12.4364207,52.5818581 12.2182173,53.5636561 12.1091157,54.2182662 C12.1091157,54.5455713 12.000014,54.8727592 12.000014,55.0909625 L12.000014,55.4182676 L3.60000419,54.7636575 Z M4.36359883,70.4727773 L3.70910588,65.8909751 C3.60000419,64.8000754 3.60000419,63.600074 3.4909025,62.7273777 C3.4909025,61.8545642 3.381918,61.3091729 3.381918,61.3091729 L11.7819278,61.0909695 C11.7819278,61.0909695 11.7819278,61.5273763 11.8909123,62.2909709 C12.000014,63.0545656 11.8909123,64.0364808 12.1091157,65.0182788 C12.4364207,66.9818748 12.6545069,68.945588 12.6545069,68.945588 L4.36359883,70.4727773 L4.36359883,70.4727773 Z M9.38180779,85.5274042 L7.41821176,81.3818916 L5.89090529,77.0182927 L13.96361,74.5091883 L15.2727131,78.218177 C16.1455266,79.9636868 16.9091212,81.8181811 16.9091212,81.8181811 L9.38180779,85.5274042 Z M18.4364277,98.5092162 C18.4364277,98.5092162 18.0000209,98.0728094 17.4545125,97.4181993 C16.9090041,96.7635892 16.0364249,96.0001117 15.3818148,95.0181965 C14.0728289,93.1637022 12.6545069,91.3092078 12.6545069,91.3092078 L19.6364291,86.6181867 C19.6364291,86.6181867 20.8364305,88.1456104 21.9273302,89.7819013 C22.4727215,90.6545977 23.2363161,91.3092078 23.6727229,91.8545991 L24.5455364,92.7274126 L18.4364277,98.5092162 L18.4364277,98.5092162 Z M30.6545279,108.436532 C30.5455434,108.654619 23.0182299,103.309222 23.2364333,103.091018 L28.6909318,96.6546047 C28.6909318,96.6546047 29.0182369,96.9819097 29.5636282,97.4183165 C30.1091366,97.8546061 30.9818329,98.4001145 31.7455448,99.0546075 C32.5091394,99.6001159 33.272734,100.254609 33.9273442,100.581914 C34.5818371,100.909219 35.0182439,101.236524 35.0182439,101.236524 L30.6545279,108.436532 L30.6545279,108.436532 Z M45.1636463,114.654626 C45.0546618,114.872829 36.4364486,111.709232 36.5455503,111.491028 L40.0364528,103.854613 C39.9273511,103.963715 47.3454457,106.691023 47.3454457,106.472819 L45.1636463,114.654626 Z M114.109117,36.1090264 C114.109117,36.1090264 114.218336,36.327347 114.436539,36.8727382 C114.545524,37.0909416 114.654626,37.4182467 114.872829,37.7455517 C114.981931,38.0727396 115.200134,38.5091464 115.309236,38.9455531 C115.636541,39.8182495 116.07283,41.0182509 116.509237,42.2182523 L116.836542,43.2000503 C116.945527,43.5273553 117.054628,43.8545432 117.054628,44.2910672 C117.272832,45.0545446 117.381933,45.8182564 117.600137,46.5818511 C117.81834,47.3455629 118.036544,48.2182592 118.145645,49.0909556 C118.25463,49.9636519 118.363731,50.9455671 118.581935,51.8182634 C118.691037,52.8000614 118.90924,53.7818595 118.90924,54.7636575 C118.90924,55.7455727 119.018224,56.8364724 119.018224,57.8182704 C119.236545,61.9636659 118.800138,66.4364836 118.145645,70.8000824 C116.618339,79.6364989 112.69103,87.7090864 108.872822,93.2728038 C107.891024,94.5819069 107.018328,95.89101 106.145631,96.9819097 C105.272935,98.0728094 104.509223,98.8365213 103.854613,99.6001159 C102.545627,101.018321 101.781915,101.891134 101.781915,101.891134 L101.127422,101.236524 C101.127422,101.236524 101.891017,100.472812 103.20012,99.0546075 C103.854613,98.2910128 104.618325,97.5274182 105.491138,96.4365185 C106.254616,95.3455016 107.127422,94.1455002 108.10911,92.8365143 C111.818333,87.4910002 115.745642,79.4182955 117.272832,70.8000824 C118.036544,66.4364836 118.363849,62.0727675 118.145645,58.0364738 C118.145645,57.0545586 118.036544,55.9636589 118.036544,54.9818609 C118.036544,54.0000628 117.81834,53.0182648 117.709239,52.1455685 C117.600137,51.1636533 117.491035,50.290957 117.272832,49.4182606 C117.163847,48.5455643 116.836542,47.6727508 116.727441,46.9091561 C116.509237,46.1455615 116.400135,45.3818497 116.181932,44.6181379 C116.072948,44.29095 115.963729,43.8545432 115.963729,43.5273553 L115.636541,42.5455573 C115.200134,41.2364542 114.763727,40.1455545 114.545524,39.272741 C114.436539,38.8364514 114.218336,38.4000447 114.109234,38.0727396 C114.000133,37.7455517 113.781929,37.4182467 113.672828,37.2000433 C113.454624,36.7636365 113.34564,36.4364486 113.34564,36.4364486 L114.109234,36.1090264 L114.109117,36.1090264 Z M29.672847,9.27282329 C29.672847,9.27282329 30.654645,8.72743203 32.2910532,7.74563401 C33.1637495,7.30922726 34.2546492,6.76371881 35.4546506,6.21832755 C36.1092608,5.89102248 36.7637537,5.6728191 37.4183639,5.34563122 C38.0728568,5.01832615 38.8365686,4.80012277 39.709265,4.4728177 C41.3456731,3.92742645 42.9819641,3.27281631 44.8365756,2.83652674 C46.69107,2.40011998 48.654666,1.85461153 50.7274809,1.63652534 C51.7092789,1.52742365 52.8001786,1.30922027 53.8910783,1.20011858 C54.9820952,1.09113408 56.0728777,1.09113408 57.1637775,0.981915205 C58.2547943,0.981915205 59.3456941,0.872930703 60.4365938,0.872930703 C61.5274935,0.872930703 62.6183932,0.981915205 63.7092929,0.981915205 C65.8910923,0.981915205 68.0728917,1.41832196 70.2546911,1.74562703 C71.345708,1.85461153 72.4366077,2.1819166 73.4184057,2.40011998 C74.5093055,2.61832336 75.4911035,2.94562843 76.4729015,3.16371462 C78.4366147,3.81832476 80.4002107,4.4728177 82.1457206,5.12742784 C83.8911132,5.89102248 85.5275214,6.65461712 87.0547107,7.41832894 C88.5820171,8.18192358 89.7820185,9.05461991 90.9820199,9.70923005 L92.6184281,10.6910281 L93.927414,11.6728261 C95.4547204,12.8728275 96.4366357,13.5274376 96.4366357,13.5274376 L95.8911272,14.2910323 C95.8911272,14.2910323 95.0184309,13.6365393 93.4911244,12.5456396 C93.0547177,12.2183345 92.7275298,12.0001312 92.1821385,11.5637244 C91.6367473,11.1273176 91.0911216,10.8001298 90.5457304,10.4728247 C89.345729,9.81833174 88.1457276,8.94563541 86.6184211,8.29102527 C85.0911146,7.63653232 83.5638082,6.8728205 81.8184155,6.10922586 C80.0729057,5.45461572 78.2184113,4.80012277 76.2546981,4.14562982 C75.2729001,3.81832476 74.1820004,3.60012138 73.2002024,3.27281631 C72.2184043,3.05461293 71.1275046,2.72742505 70.0366049,2.61832336 C67.8546883,2.29101829 65.7819906,1.85461153 63.6001912,1.85461153 C62.5091743,1.85461153 61.4183918,1.74562703 60.3274921,1.74562703 C59.2365924,1.74562703 58.1456927,1.85461153 57.0546758,1.85461153 C55.9637761,1.96371322 54.8728764,1.96371322 53.8910783,2.07281491 C52.8001786,2.1819166 51.8183806,2.40011998 50.8365826,2.50922167 C48.7637677,2.72742505 46.9092733,3.27281631 45.0546618,3.70922307 C43.2001675,4.03652813 41.5637593,4.80012277 40.03657,5.34563122 C39.2728582,5.6728191 38.5092636,5.89102248 37.8546534,6.10922586 C37.2001605,6.43653093 36.5456675,6.76371881 35.8910574,6.98192219 C34.5820715,7.63653232 33.6001563,8.07293908 32.72746,8.50922865 C31.0910518,9.49102667 30.1092538,10.0365351 30.1092538,10.0365351 L29.672847,9.27282329 L29.672847,9.27282329 Z M13.309117,96.4365185 C13.309117,96.4365185 12.6545069,95.563705 11.4545055,93.927414 L10.4727075,92.6183109 L9.49090948,90.9819027 C8.83641653,89.7819013 7.96360302,88.4729155 7.20000838,87.0545935 C6.54551543,85.5274042 5.67270191,83.8909961 4.90899009,82.1456034 C4.25449714,80.2909919 3.60000419,78.4364975 2.94551124,76.4727843 C2.72730786,75.4909863 2.40000279,74.4000866 2.18179941,73.4182886 C1.96359603,72.3272717 1.63640815,71.3455908 1.52730646,70.2545739 C1.2000014,68.0727745 0.763594639,65.8909751 0.763594639,63.7091757 C0.763594639,62.6181588 0.654610137,61.5273763 0.654610137,60.4364766 C0.654610137,59.3455769 0.763594639,58.25456 0.763594639,57.1636603 C0.872696328,56.0727606 0.872696328,54.9818609 0.981798017,53.8909611 C1.09089971,52.8000614 1.30910309,51.8182634 1.41820478,50.7273637 C1.63640815,48.6545488 2.18179941,46.6909528 2.61820617,44.8363412 C3.05449574,42.9818469 3.70910588,41.236337 4.25449714,39.7091478 C4.58180221,38.9455531 4.80000559,38.1818413 5.12731065,37.4181295 C5.45449853,36.7636365 5.7818036,36.1091436 6.00000698,35.4545334 C6.54551543,34.254532 7.09102388,33.1636323 7.52731345,32.290936 C8.72731484,30.5455434 9.2727061,29.6727298 9.2727061,29.6727298 L10.0364179,30.1091366 C10.0364179,30.1091366 9.49090948,31.0909346 8.50911146,32.7273428 C8.07270471,33.6000391 7.63641514,34.6909388 6.981805,35.8909402 C6.65449993,36.5455503 6.43641374,37.0909416 6.10910867,37.8545362 C5.7818036,38.5091464 5.56360022,39.272741 5.34551403,40.0364528 C4.80000559,41.5636421 4.14551264,43.2000503 3.70910588,45.0545446 C3.27269912,46.9091561 2.72730786,48.7636505 2.50910448,50.8364654 C2.40000279,51.8182634 2.18179941,52.9091631 2.07269772,53.8909611 C1.96371322,54.981978 1.96371322,55.9636589 1.85449435,57.0545586 C1.85449435,58.1455755 1.74550984,59.2364752 1.74550984,60.3273749 C1.74550984,61.4182746 1.85449435,62.5091743 1.85449435,63.600074 C1.85449435,65.7818734 2.2909011,67.9636728 2.61820617,70.0364877 C2.72719067,71.1273875 3.05449574,72.1091855 3.27269912,73.2000852 C3.60000419,74.1818832 3.81820757,75.2727829 4.03641095,76.2545809 C4.6909039,78.2182941 5.34539685,80.0727885 6.00000698,81.8182983 C6.76360162,83.563691 7.52731345,85.0909975 8.1818064,86.6183039 C8.94551822,88.0365087 9.70911286,89.3456118 10.3636058,90.5456132 L11.345521,92.1819041 L12.327319,93.4910072 C13.4182187,95.0183137 14.0727117,95.89101 14.0727117,95.89101 L13.309117,96.4365185 L13.309117,96.4365185 Z M101.891134,101.891134 C101.891134,101.891134 101.018321,102.654612 99.6001159,103.963715 C98.8365213,104.618325 98.0728094,105.491021 96.9819097,106.254733 C95.89101,107.018328 94.6910086,108.000126 93.272921,108.981924 C87.8183053,112.800131 79.6364989,116.727441 70.8000824,118.25463 C66.4364836,119.018342 61.9636659,119.345647 57.8182704,119.127443 C56.7272535,119.127443 55.7455727,119.018342 54.7636575,119.018342 L51.8182634,118.691037 C50.8364654,118.582052 49.9636519,118.472833 49.0909556,118.25463 C48.2182592,118.145645 47.3455629,117.81834 46.5819683,117.709239 C45.8182564,117.491035 44.9455601,117.272832 44.29095,117.16373 C43.9636449,117.054746 43.5273553,116.945644 43.2000503,116.945644 L42.2182523,116.618339 C40.9091492,116.181932 39.8182495,115.745642 38.9455531,115.418337 C38.5091464,115.200134 38.0727396,115.091032 37.7455517,114.981931 C37.4182467,114.872946 37.0909416,114.654626 36.8727382,114.545641 C36.4364486,114.327438 36.1091436,114.218336 36.1091436,114.218336 L36.5455503,113.34564 C36.5455503,113.34564 36.7636365,113.454624 37.309145,113.672828 C37.5273484,113.781929 37.8545362,113.891031 38.1818413,114.109234 C38.5091464,114.218219 38.9455531,114.327438 39.3818427,114.545641 C40.254539,114.872829 41.3455559,115.200134 42.6545418,115.636541 L43.636457,115.963729 C43.9636449,116.07283 44.29095,116.181932 44.7273567,116.181932 C45.4909514,116.400135 46.254546,116.509237 47.0182578,116.727441 C47.7818525,116.945644 48.6545488,117.16373 49.5272451,117.272832 C50.4000586,117.381933 51.272755,117.491035 52.254553,117.709239 C53.2364682,117.818223 54.1091645,118.036544 55.0909625,118.036544 C56.0727606,118.036544 57.0545586,118.145528 58.1455755,118.145528 C62.2909709,118.363731 66.6545697,117.927442 70.9091841,117.272832 C79.5273972,115.745642 87.6001019,111.818333 92.945616,108.109227 C94.2546019,107.127422 95.4546033,106.254616 96.5456202,105.491021 C97.6366371,104.727427 98.4001145,103.854613 99.1637091,103.20012 C100.581914,101.891134 101.345626,101.127422 101.345626,101.127422 L101.891134,101.891017 L101.891134,101.891134 Z" id="形状"></path>
            </g>
            <g id="agile" transform="translate(27.000000, 36.000000)">
                <path d="M10.4061723,27.3104247 C9.20785533,28.55688 7.37355351,29.1798314 4.90341456,29.1798314 C3.5789201,29.1798314 2.43039451,28.7809911 1.45828103,27.9836256 C0.485872052,27.1862603 -4.4408921e-16,26.19476 -4.4408921e-16,25.0095192 C-4.4408921e-16,23.5892025 0.748864984,22.3883425 2.24681658,21.4078071 C3.74454653,20.4275084 5.65493902,19.9372407 7.97792013,19.9372407 C8.60858604,19.9372407 9.32339492,20.050519 10.1222729,20.2770755 C10.1222729,18.0110371 8.90290171,16.8781756 6.46452877,16.8781756 C4.59321588,16.8781756 3.15325569,17.2964217 2.14442663,18.1330715 L0.883020931,16.0545417 C1.45067196,15.6710049 2.23625253,15.3420562 3.23998428,15.067459 C4.24378986,14.7928618 5.20312309,14.6557604 6.11746676,14.6557604 C8.56655149,14.6557604 10.3455214,15.1176296 11.4546719,16.0414469 C12.5633053,16.9651853 13.1178806,18.4338584 13.1178806,20.4470718 L13.1178806,25.4669708 C13.1178806,26.6959139 13.5593541,27.5151303 14.4423011,27.92462 L14.4423011,29.1666578 C13.22293,29.1666578 12.3109503,29.0227722 11.7068792,28.7353169 C11.1022909,28.4477036 10.6685742,27.9727397 10.4061723,27.3104247 Z M10.122199,22.0419602 C9.1761632,21.8677831 8.5140268,21.7804579 8.13564202,21.7804579 C6.62195516,21.7804579 5.386701,22.1030958 4.43054441,22.7478983 C3.47387068,23.3929375 2.99568157,24.1556725 2.99568157,25.0357878 C2.99568157,26.4912872 4.03088379,27.2188397 6.10180538,27.2188397 C7.61549223,27.2188397 8.95564806,26.6220778 10.1222729,25.4278442 L10.1222729,22.0419602 L10.122199,22.0419602 Z" id="Shape" fill="#345AD6"></path>
                <path d="M17.0771062,32.3911614 L18.7009398,30.4039011 C20.4458536,31.3713414 22.0540258,31.8550617 23.5256042,31.8550617 C24.8817169,31.8550617 25.9509753,31.6610056 26.7341918,31.2733669 C27.5171128,30.8854914 27.908795,30.4039011 27.908795,29.8287536 C27.908795,28.6958919 26.9207248,28.1294219 24.9448057,28.1294219 C24.60816,28.1294219 23.9987698,28.1993136 23.1158228,28.338545 C22.2328758,28.4780128 21.5441446,28.5476681 21.0502202,28.5476681 C18.6538818,28.5476681 17.4555648,27.7983433 17.4555648,26.2991419 C17.4555648,25.8372728 17.7365831,25.4190267 18.2991368,25.0442461 C18.8611734,24.6694653 19.5575875,24.3992067 20.3881576,24.2337858 C18.0125779,23.3100475 16.8248989,21.706245 16.8248989,19.4227731 C16.8248989,17.9587541 17.4399035,16.7385674 18.669617,15.7623708 C19.8993306,14.7864107 21.4180409,14.2983519 23.2263389,14.2983519 C24.8868881,14.2983519 26.1850094,14.5814686 27.1207028,15.1478599 L28.6184327,13.6576513 L30.5735932,15.1871444 L28.7762286,16.3115652 C29.5434144,17.1395378 29.927192,18.2200199 29.927192,19.5534848 C29.927192,20.965361 29.3962567,22.1506018 28.3347549,23.109365 C27.272958,24.0682858 25.8803513,24.6173225 24.1564917,24.7565539 L21.6811077,24.9656769 C21.386792,24.9918667 20.992672,25.0857392 20.4987476,25.2468217 C20.0046017,25.4081406 19.7576395,25.6194722 19.7576395,25.8809747 C19.7576395,26.2383219 20.2725442,26.4168378 21.3027229,26.4168378 C21.7546128,26.4168378 22.4590053,26.3493914 23.4156791,26.2142619 C24.3718357,26.0791328 25.0813256,26.0116864 25.544075,26.0116864 C27.2049197,26.0116864 28.5003814,26.3406353 29.4306821,26.9985325 C30.360761,27.6566667 30.8259482,28.5692822 30.8259482,29.7373264 C30.8259482,31.0271681 30.1295341,32.0686022 28.7369273,32.8618656 C27.3440991,33.6546556 25.5807906,34.0515239 23.4470757,34.0515239 C22.3538821,34.0515239 21.2026231,33.8899683 19.9942592,33.5678036 C18.7850089,33.2450869 17.8126738,32.8527939 17.0771062,32.3911614 Z M23.4311188,16.2983126 C22.390376,16.2983126 21.5414112,16.6035171 20.8846676,17.2133737 C20.2276285,17.8234671 19.8992567,18.5643511 19.8992567,19.4357101 C19.8992567,20.4119068 20.2169906,21.2201582 20.853271,21.8608588 C21.4890342,22.5013228 22.3483415,22.8217519 23.4311188,22.8217519 C24.4926204,22.8217519 25.3231905,22.51 25.9222381,21.8868118 C26.5212858,21.2638603 26.8209204,20.4467738 26.8209204,19.4357101 C26.8209204,18.5643511 26.4978676,17.8234671 25.8511709,17.2133737 C25.2047698,16.6035171 24.3979133,16.2983126 23.4311188,16.2983126 Z" id="Shape" fill="#345AD6"></path>
                <polygon id="Shape" fill="#345AD6" points="35.96746 28.6569844 35.96746 16.7476217 33.6497978 16.7476217 33.6497978 14.6557604 38.9630676 14.6557604 38.9630676 28.6569844"></polygon>
                <path d="M43.9316804,25.4441819 L43.9316804,9.66521508 L46.927362,9.66521508 L46.927362,25.0259361 C46.927362,25.7754972 47.1876216,26.3660272 47.7078453,26.7972892 C48.2280689,27.22863 48.9085262,27.4445372 49.7497343,27.4445372 L49.7497343,29.6668736 C45.8711794,29.6668736 43.9316804,28.259415 43.9316804,25.4441819 Z" id="Shape" fill="#345AD6"></path>
                <path d="M66.7347354,22.1594983 L54.5628907,22.1594983 C54.5628907,23.7981675 55.1041686,25.0574811 56.1867242,25.9375964 C57.1431763,26.70467 58.3728899,27.0879703 59.8761605,27.0879703 C61.5893821,27.0879703 63.019,26.6743783 64.1648661,25.8461692 L65.4262718,27.6371647 C64.9635223,28.0207014 64.2540323,28.3518589 63.2975802,28.6305581 C62.0992633,28.9966614 60.7644265,29.1797525 59.2927741,29.1797525 C57.1694757,29.1797525 55.3667922,28.5827542 53.8847975,27.3887569 C52.2343689,26.0729622 51.4094133,24.3035022 51.4094133,22.0811659 C51.4094133,19.7717409 52.2554231,17.919531 53.9478862,16.5251671 C55.461573,15.2790274 57.2535447,14.6557604 59.3244664,14.6557604 C61.7312209,14.6557604 63.6182693,15.217813 64.9847244,16.3419971 C66.3091449,17.4227159 66.9712814,18.8566798 66.9712814,20.6431 C66.9712814,21.1920578 66.8925311,21.697629 66.7347354,22.1594983 Z M59.4663052,16.747385 C58.1311728,16.747385 57.0119015,17.1047321 56.1079002,17.8193476 C55.2459336,18.499096 54.7571066,19.344502 54.641567,20.355329 L63.991261,20.355329 C63.991261,19.3531793 63.6128764,18.5165295 62.8560328,17.8455372 C62.0258323,17.1134094 60.8956274,16.747385 59.4663052,16.747385 Z" id="Shape" fill="#345AD6"></path>
                <polygon id="Shape" fill="#F70303" points="36.0711386 5.98865436 37.0840307 9.31750472 40.3619127 9.31750472 37.7100425 11.3748146 38.7230085 14.703665 36.0711386 12.6463551 33.4193426 14.703665 34.4322347 11.3748146 31.7803647 9.31750472 35.0582465 9.31750472"></polygon>
                <polygon id="Shape" fill="#F70303" points="45.3218822 1.99621811 46.091432 4.52509997 48.5815169 4.52509997 46.5669617 6.08804017 47.3365114 8.61692203 45.3218822 7.05398183 43.3073267 8.61692203 44.0768028 6.08804017 42.0622473 4.52509997 44.5524062 4.52509997"></polygon>
                <polygon id="Shape" fill="#F70303" points="53.8571682 1.11022302e-16 54.435088 1.89906736 56.3049972 1.89906736 54.7921968 3.07279103 55.3700426 4.97185842 53.8571682 3.79813475 52.3443679 4.97185842 52.9222137 3.07279103 51.4094133 1.89906736 53.2793227 1.89906736"></polygon>
                <polygon id="Shape" fill="#F70303" points="61.2509636 1.99621811 61.588348 3.10494089 62.680138 3.10494089 61.7968216 3.79021122 62.134206 4.898934 61.2509636 4.21374253 60.3677208 4.898934 60.7051052 3.79021122 59.8218628 3.10494089 60.9135788 3.10494089"></polygon>
                <polygon id="Shape" fill="#F70303" points="65.5370014 3.99243622 65.7828554 4.80045097 66.5785568 4.80045097 65.934889 5.29986925 66.180743 6.10796289 65.5370014 5.60854461 64.8932595 6.10796289 65.1391875 5.29986925 64.4954459 4.80045097 65.2911471 4.80045097"></polygon>
                <polygon id="Shape" fill="#F70303" points="36.0710648 43.6488278 35.0581725 40.3199772 31.7803647 40.3199772 34.4321607 38.2626675 33.4192686 34.9338169 36.0710648 36.9911269 38.7229348 34.9338169 37.7099688 38.2626675 40.3618387 40.3199772 37.0839569 40.3199772"></polygon>
                <polygon id="Shape" fill="#F70303" points="27.5622667 48.5412844 26.7927907 46.0124025 24.3026318 46.0124025 26.3171872 44.4494622 25.5477112 41.9205806 27.5622667 43.4835206 29.576822 41.9205806 28.8073462 44.4494622 30.8219014 46.0124025 28.3317425 46.0124025"></polygon>
                <polygon id="Shape" fill="#F70303" points="18.3380112 49.8866872 17.7601655 47.9876197 15.8901823 47.9876197 17.4029827 46.813975 16.8251369 44.9149075 18.3380112 46.0886314 19.8508115 44.9149075 19.2729658 46.813975 20.7858401 47.9876197 18.9158569 47.9876197"></polygon>
                <polygon id="Shape" fill="#F70303" points="11.7109833 47.8177025 11.3735988 46.7089008 10.2818827 46.7089008 11.1651252 46.0237092 10.8277407 44.9149075 11.7109833 45.6001781 12.5942258 44.9149075 12.2568414 46.0237092 13.1401578 46.7089008 12.0483678 46.7089008"></polygon>
                <polygon id="Shape" fill="#F70303" points="6.64985508 46.0323253 6.40400099 45.2242317 5.60829965 45.2242317 6.25204131 44.7248133 6.00611338 43.9167986 6.64985508 44.4162169 7.29359677 43.9167986 7.04774269 44.7248133 7.69148438 45.2242317 6.895783 45.2242317"></polygon>
            </g>
        </g>
    </g>
</svg>